<?xml version="1.0" encoding="UTF-8" standalone="no"?>
<svg
		xmlns="http://www.w3.org/2000/svg"
		viewBox="0 0 1496 1082.6667"
		height="1082.6667"
		width="1496"
		xml:space="preserve"
		id="svg2"
		style="fill:#ffffff"
		version="1.1"><defs
     id="defs6"><clipPath
       id="clipPath18"
       clipPathUnits="userSpaceOnUse"><path
         id="path16"
         d="M 0,812 H 1122 V 0 H 0 Z" /></clipPath></defs><g
		transform="matrix(1.3333333,0,0,-1.3333333,0,1082.6667)"
		id="g10"><g
       id="g12"><g
         clip-path="url(#clipPath18)"
         id="g14"><g
           transform="translate(423.2393,423.5259)"
           id="g20"><path
             id="path22"
             d="m 0,0 c 3.1,0 6.201,0.62 9.301,1.86 2.481,1.241 3.72,3.721 3.101,6.821 0,2.481 -1.24,4.961 -3.101,6.201 -1.86,1.241 -5.581,2.481 -9.921,2.481 H -21.083 V 0 Z m -4.341,31.625 c 3.101,0 6.201,0.62 9.301,1.86 2.481,1.24 3.721,3.721 3.721,6.201 0,2.481 -1.24,4.961 -3.1,6.201 C 3.1,47.747 0,48.367 -3.101,47.747 H -20.463 V 31.005 H -4.341 Z M -37.826,63.87 H -1.24 c 9.301,0 16.122,-2.481 20.463,-6.821 4.34,-3.721 6.201,-8.682 6.201,-13.642 0,-1.861 0,-4.341 -0.62,-6.201 -1.241,-3.101 -3.101,-6.201 -5.581,-8.682 -1.241,-1.24 -2.481,-1.86 -3.721,-2.48 4.341,-1.24 8.061,-3.721 11.162,-6.821 2.48,-3.1 3.72,-6.821 3.72,-12.402 0,-3.1 -0.62,-6.821 -1.86,-9.301 -1.24,-2.481 -3.72,-4.961 -6.201,-6.821 -3.1,-1.861 -6.201,-3.101 -9.302,-4.341 -3.72,-1.24 -8.061,-1.24 -12.401,-1.24 H -37.206 V 63.87 Z" /></g><path
		id="path24"
		d="M 475.327,487.396 H 492.69 V 408.024 H 475.327 Z" /><g
		transform="translate(519.3535,487.3955)"
		id="g26"><path
             id="path28"
             d="M 0,0 H 16.123 L 53.328,-48.987 V 0 H 70.69 V -79.372 H 55.809 L 16.743,-29.145 V -79.372 H 0 Z" /></g><g
		transform="translate(661.3555,440.8887)"
		id="g30"><path
             id="path32"
             d="M 0,0 -10.542,26.044 -21.084,0 Z M -18.604,47.127 H -2.48 L 31.624,-32.865 H 13.642 L 6.2,-14.882 h -33.484 l -7.442,-17.983 h -17.982 z" /></g><g
		transform="translate(711.583,487.3955)"
		id="g34"><path
             id="path36"
             d="M 0,0 H 16.122 L 53.328,-48.987 V 0 H 70.69 V -79.372 H 55.808 L 17.362,-29.145 V -79.372 H 0 Z" /></g><g
		transform="translate(845.5225,406.7832)"
		id="g38"><path
             id="path40"
             d="m 0,0 c -5.58,0 -11.161,1.24 -16.122,3.101 -9.922,4.34 -17.362,11.781 -21.703,21.703 -1.861,4.961 -3.101,10.542 -3.101,16.122 0,10.542 4.341,21.084 11.782,29.145 3.72,3.721 8.061,6.821 13.022,8.681 5.581,2.48 11.162,3.101 16.742,3.101 3.101,0 6.821,0 9.922,-0.621 3.101,-0.62 5.581,-1.24 8.062,-2.48 2.48,-1.24 4.959,-2.481 6.82,-3.72 1.86,-1.24 4.341,-3.101 6.201,-4.961 L 21.084,57.049 c -3.101,2.48 -6.201,4.961 -9.302,6.821 -3.1,1.86 -6.821,2.48 -10.542,2.48 -3.1,0 -6.2,-0.62 -9.301,-1.86 -3.1,-1.24 -5.581,-3.1 -7.441,-5.581 -1.86,-2.48 -3.721,-4.961 -4.961,-8.061 -1.24,-3.1 -1.86,-6.201 -1.86,-9.302 0,-3.1 0.62,-6.82 1.86,-9.921 1.24,-3.101 2.481,-5.581 4.961,-8.061 4.341,-4.961 10.542,-7.441 16.742,-7.441 3.721,0 8.062,0.62 11.782,2.48 3.101,1.86 6.822,4.341 9.302,6.821 L 33.485,14.262 c -1.86,-1.86 -4.34,-4.34 -6.201,-6.2 C 24.804,6.201 22.324,4.961 19.844,3.721 17.363,2.48 14.263,1.24 11.162,0.62 6.821,0 3.101,0 0,0" /></g><g
		transform="translate(898.8506,487.3955)"
		id="g42"><path
             id="path44"
             d="M 0,0 H 59.529 V -15.502 H 16.743 V -31.625 H 54.568 V -47.127 H 16.743 V -63.87 H 60.149 V -79.372 H 0 Z" /></g><g
		transform="translate(407.7368,329.8916)"
		id="g46"><path
             id="path48"
             d="m 0,0 c -4.341,0 -8.682,0.62 -12.402,2.48 -3.721,1.241 -7.441,3.721 -11.161,6.822 l 6.2,6.821 c 2.481,-2.48 4.961,-3.721 8.061,-5.581 3.101,-1.24 6.201,-1.86 9.302,-1.86 2.48,0 4.96,0.62 7.441,1.86 1.86,1.24 2.48,3.101 2.48,4.961 0,0.62 0,1.859 -0.62,2.479 -0.62,0.621 -1.24,1.861 -1.86,2.481 -1.24,0.62 -2.481,1.24 -3.72,1.86 -1.861,0.62 -4.341,1.24 -6.201,1.861 -2.481,0.62 -5.582,1.24 -8.062,2.48 -1.86,0.62 -4.34,1.86 -5.581,3.101 -1.24,1.24 -2.48,2.48 -3.72,4.34 -1.24,2.481 -1.24,4.961 -1.24,6.822 0,2.479 0.62,4.34 1.24,6.82 0.62,1.86 2.48,3.721 3.72,4.961 1.861,1.24 3.721,2.48 6.201,3.101 2.481,0.62 4.961,1.24 7.442,1.24 3.72,0 7.44,-0.62 11.161,-1.861 3.101,-1.24 6.201,-3.1 9.301,-4.96 l -4.96,-7.441 c -2.48,1.859 -4.961,3.1 -7.441,4.34 -2.481,1.24 -4.961,1.24 -7.441,1.24 -2.481,0 -4.961,-0.62 -6.822,-1.86 -1.24,-1.24 -2.48,-3.1 -2.48,-4.96 0,-1.24 0,-1.86 0.62,-3.101 0.62,-0.62 1.24,-1.86 1.86,-2.48 1.241,-0.62 2.481,-1.24 4.341,-1.861 1.861,-0.62 3.721,-1.24 6.821,-1.86 2.48,-0.62 4.961,-1.24 8.062,-2.48 1.86,-0.62 3.72,-1.861 5.58,-3.101 1.24,-1.24 2.481,-3.101 3.101,-4.341 0.62,-1.86 1.24,-3.72 1.24,-6.2 0,-2.48 -0.62,-4.961 -1.24,-6.821 C 17.982,7.441 16.742,5.581 14.882,3.721 13.022,2.48 11.162,1.24 8.681,0.62 5.581,0.62 2.48,0 0,0" /></g><g
		transform="translate(438.7412,386.3203)"
		id="g50"><path
             id="path52"
             d="M 0,0 H 10.542 L 27.284,-26.044 44.647,0 h 10.541 v -55.809 h -9.921 v 40.307 L 27.904,-41.546 h -0.62 L 9.922,-15.502 V -55.809 H 0 Z" /></g><g
		transform="translate(541.6768,352.835)"
		id="g54"><path
             id="path56"
             d="M 0,0 -9.921,22.323 -19.223,0 Z M -14.262,34.105 H -4.96 L 19.223,-21.703 H 8.682 L 3.101,-8.061 h -26.044 l -5.581,-13.642 h -9.922 z" /></g><g
		transform="translate(595.0049,359.0361)"
		id="g58"><path
             id="path60"
             d="m 0,0 c 3.101,0 6.201,0.62 8.062,2.48 1.86,1.861 3.1,4.341 3.1,6.822 0,2.48 -1.24,4.96 -3.1,6.82 -2.481,1.86 -5.582,2.481 -8.682,2.481 H -14.882 L -14.882,0 Z M -24.184,27.284 H 0.62 c 3.101,0 6.201,-0.62 9.302,-1.24 2.48,-0.62 4.961,-2.481 6.82,-4.341 1.24,-1.24 2.481,-3.1 3.721,-5.581 0.62,-1.86 1.24,-4.34 1.24,-6.82 0,-1.861 -0.62,-4.341 -1.24,-6.201 C 19.843,1.24 18.603,0 17.982,-1.86 16.742,-3.101 15.502,-4.341 13.643,-5.581 11.782,-6.821 9.922,-7.441 8.062,-8.062 L 22.943,-29.145 H 11.162 L -2.48,-9.922 h -12.402 v -19.223 h -9.922 z" /></g><g
		transform="translate(642.1318,377.6387)"
		id="g62"><path
             id="path64"
             d="M 0,0 H -17.982 V 8.682 H 27.284 V 0 H 9.302 V -47.127 H -0.62 Z" /></g><g
		transform="translate(729.5654,329.8916)"
		id="g66"><path
             id="path68"
             d="m 0,0 c -3.721,0 -7.441,0.62 -11.162,2.48 -6.82,3.101 -12.401,8.062 -14.882,14.882 -1.24,3.721 -2.48,7.442 -1.86,11.162 0,3.721 0.62,7.442 1.86,11.163 2.481,6.82 8.062,12.401 14.882,15.501 3.721,1.241 7.441,2.481 11.782,2.481 2.481,0 4.961,0 6.821,-0.62 1.861,-0.62 3.72,-1.24 5.58,-1.861 1.861,-0.62 3.101,-1.86 4.961,-2.48 1.241,-1.24 3.101,-2.48 4.341,-3.721 l -6.201,-7.44 c -1.86,1.859 -4.341,3.72 -6.82,4.96 -2.481,1.24 -5.581,1.86 -8.682,1.86 -2.48,0 -4.961,-0.62 -7.441,-1.24 -2.481,-1.24 -4.341,-2.481 -6.201,-4.341 -1.861,-1.859 -3.1,-3.72 -3.72,-6.2 -0.62,-2.481 -1.24,-4.961 -1.24,-7.441 0,-2.481 0.62,-4.961 1.24,-7.442 0.62,-2.48 1.86,-4.341 3.72,-6.2 1.86,-1.86 3.72,-3.101 6.201,-4.341 2.48,-1.24 4.961,-1.86 7.441,-1.24 3.101,0 6.201,0.62 8.682,1.86 2.479,1.24 4.96,3.101 7.44,5.58 l 6.201,-6.2 -4.34,-4.341 C 16.742,5.581 15.502,4.341 13.642,3.721 11.781,3.101 9.922,1.86 7.441,1.86 4.961,0 2.48,0 0,0" /></g><g
		transform="translate(762.4307,386.3203)"
		id="g70"><path
             id="path72"
             d="M 0,0 H 9.301 V -22.943 H 35.965 V 0 h 9.922 v -55.809 h -9.922 v 23.564 H 9.301 V -55.809 H 0 Z" /></g><g
		transform="translate(856.0645,352.835)"
		id="g74"><path
             id="path76"
             d="M 0,0 -9.302,22.323 -18.603,0 Z m -13.642,34.105 h 9.301 L 19.843,-21.703 H 9.302 L 3.721,-8.061 h -26.044 l -5.581,-13.642 h -9.922 z" /></g><path
		id="path78"
		d="m 885.829,386.32 h 9.921 v -55.809 h -9.921 z" /><g
		transform="translate(910.6328,386.3203)"
		id="g80"><path
             id="path82"
             d="M 0,0 H 8.682 L 38.445,-38.446 V 0 h 9.922 V -55.809 H 40.306 L 9.921,-16.122 V -55.809 H 0 Z" /></g><g
		transform="translate(255.1938,513.4395)"
		id="g84"><path
             id="path86"
             d="M 0,0 56.428,-32.865 35.965,-45.267 0.62,-24.184 -35.346,-45.267 -55.809,-32.865 Z M 0,-41.546 21.083,-53.948 0,-66.35 -20.463,-53.948 Z m 71.311,0 21.083,-12.402 V -78.132 L 71.311,-90.534 v 24.184 l -20.463,12.402 z m -142.622,0 21.083,-12.402 -21.083,-12.402 v -24.184 l -20.463,12.402 v 24.184 z m 127.739,-75.031 v -24.184 l -20.463,-12.402 v 24.184 z m -112.857,0 20.463,-12.402 v -24.184 l -20.463,12.402 z m 91.774,53.948 21.083,-12.402 v -24.184 l -35.345,-21.083 v -42.167 l -20.463,-12.401 -20.463,12.401 v 42.167 l -36.586,21.083 v 24.184 L -35.346,-62.629 0,-83.712 Z m 56.428,-32.865 v -66.351 l -56.428,-32.864 v 24.184 l 35.345,21.083 v 41.546 z m -183.547,0 20.463,-12.402 v -41.546 l 35.345,-21.083 v -24.184 l -55.808,32.864 z m 112.857,-83.713 v -24.184 L 0,-215.793 l -20.463,12.402 v 24.184 L 0,-191.609 Z" /></g></g></g></g></svg>
