<?xml version="1.0" encoding="UTF-8"?>
<svg xmlns="http://www.w3.org/2000/svg" viewBox="0 0 144.125 26.908" fill="white" stroke="none" class="icon" width="14.4rem" version="1.1">
    <g id="surface1">
        <path d="M11.743,0h0q5.873,3.351,11.731,6.726c.007,4.483,0,8.966.006,13.45q-5.7,3.269-11.395,6.531a1.95,1.95,0,0,0-.267.2h-.112c-1.467-.894-2.976-1.719-4.462-2.583Q3.621,22.251,0,20.169V6.743c.735-.459,1.5-.869,2.248-1.306Q7,2.718,11.743,0m8.971,7.051a11.784,11.784,0,0,0-1.441.633c-2.119,1.005-4.259,1.964-6.384,2.956a2.751,2.751,0,0,1-2.267.02Q7.479,9.215,4.334,7.77a1.635,1.635,0,0,0-.963-.255A1.247,1.247,0,0,0,2.5,9.344a1.274,1.274,0,0,0,.581.477c2.117.966,4.228,1.945,6.345,2.914a1.935,1.935,0,0,1,1.118,1.8c0,2.134,0,4.267,0,6.4a1.672,1.672,0,0,0,.146.918,1.232,1.232,0,0,0,1.419.519,1.131,1.131,0,0,0,.82-1.094q-.005-3.417,0-6.835a1.9,1.9,0,0,1,1.1-1.711c1.607-.729,3.2-1.479,4.811-2.2a.777.777,0,0,1,.845.061,1.25,1.25,0,0,1,.282.91c.005,1.557-.008,3.116.006,4.673a1.031,1.031,0,0,0,1.231.914,1,1,0,0,0,.868-1c0-2.715.008-5.431-.005-8.146A1.047,1.047,0,0,0,20.715,7.051Z" fill="white"></path>
        <path d="M675.023,76.663a1.4,1.4,0,0,1,1.8,1.082,1.406,1.406,0,1,1-2.769.448A1.451,1.451,0,0,1,675.023,76.663Z" transform="translate(-615.729 -69.96)" fill="white"></path>
        <path d="M621,78.874c.825,0,1.65,0,2.476,0q0,6.623,0,13.246c-.825,0-1.652,0-2.477,0Q621,85.5,621,78.874Z" transform="translate(-567.269 -72.049)" fill="white"></path>
        <path d="M838.723,78.874c.825,0,1.65,0,2.476,0,0,1.236,0,2.473,0,3.709.889,0,1.779,0,2.668,0-.02.67.042,1.36-.028,2.017-.881.016-1.762,0-2.642.006.008,1.321-.017,2.643.013,3.964.035.525.108,1.2.653,1.451a4.273,4.273,0,0,0,1.972.052c-.007.617.016,1.235-.013,1.852a6.862,6.862,0,0,1-2.418.331,2.776,2.776,0,0,1-2.03-.95,3.187,3.187,0,0,1-.653-2.043c0-1.553,0-3.105,0-4.658-.451,0-.9,0-1.351,0v-2.02c.45,0,.9,0,1.351,0C838.723,81.347,838.721,80.11,838.723,78.874Z" transform="translate(-764.921 -72.049)" fill="white"></path>
        <path d="M352.873,88.874q2.862,0,5.724,0a4.809,4.809,0,0,1,3.6,1.424,5,5,0,0,1,.944,3.963,4.056,4.056,0,0,1-1.516,2.766,4.8,4.8,0,0,1-.927.542q1.438,1.844,2.88,3.686c-1.007,0-2.013,0-3.02,0-.8-1.062-1.591-2.13-2.392-3.191-.921.022-1.843,0-2.764.01,0,1.06,0,2.12,0,3.18h-2.53q0-6.191,0-12.382m2.531,2.185q0,2.471,0,4.941c.744,0,1.488,0,2.232,0a3.473,3.473,0,0,0,2.045-.57,2.169,2.169,0,0,0,.852-1.529,2.651,2.651,0,0,0-.594-2.128,2.6,2.6,0,0,0-1.859-.71C357.188,91.054,356.3,91.06,355.4,91.059Z" transform="translate(-322.342 -81.184)" fill="white"></path>
        <path d="M1340.49,88.984c1.4,0,2.8,0,4.2,0a12.34,12.34,0,0,1,2.167.1,4.188,4.188,0,0,1,2.662,1.457,5.05,5.05,0,0,1,.855,3.68,4.2,4.2,0,0,1-1.356,2.809,5.637,5.637,0,0,1-3.461,1.165c-.852.016-1.705,0-2.557.007q0,1.578,0,3.156-1.256,0-2.511,0,0-6.184,0-12.369M1343,91.157q0,2.476,0,4.952a11.427,11.427,0,0,0,3.229-.216,2.177,2.177,0,0,0,1.467-1.569,2.756,2.756,0,0,0-.536-2.446,2.607,2.607,0,0,0-1.88-.717C1344.521,91.15,1343.76,91.159,1343,91.157Z" transform="translate(-1224.51 -81.282)" fill="white"></path>
        <path d="M489.286,121.659a4.7,4.7,0,0,1,3.122-1.931,5.022,5.022,0,0,1,3.372.585,4.308,4.308,0,0,1,1.766,2.2,6.735,6.735,0,0,1,.362,2.782c-2.357.005-4.714,0-7.07,0a2.66,2.66,0,0,0,1.13,1.675,3.133,3.133,0,0,0,4.047-.735c.536.423,1.055.87,1.582,1.3a5.1,5.1,0,0,1-3.453,1.913,5.275,5.275,0,0,1-3.433-.62,4.723,4.723,0,0,1-2.115-2.752,5.238,5.238,0,0,1,.689-4.429m2.438.538a2.814,2.814,0,0,0-.87,1.534q2.365,0,4.729,0a2.247,2.247,0,0,0-1-1.8A2.552,2.552,0,0,0,491.724,122.2Z" transform="translate(-446.13 -109.305)" fill="white"></path>
        <path d="M724.327,121.831a5.279,5.279,0,0,1,5.87-1.916,4.763,4.763,0,0,1,2.207,1.64c-.529.489-1.062.973-1.588,1.465a2.642,2.642,0,0,0-2.4-1.148,2.8,2.8,0,0,0-2.51,2.229,2.691,2.691,0,0,0,1.273,2.789,2.63,2.63,0,0,0,3.636-.759c.517.491,1.04.976,1.556,1.469a4.694,4.694,0,0,1-3,1.858,5.365,5.365,0,0,1-4.13-1.143,4.865,4.865,0,0,1-1.679-2.653A4.748,4.748,0,0,1,724.327,121.831Z" transform="translate(-660.847 -109.303)" fill="white"></path>
        <path d="M1064.892,120.377a4.477,4.477,0,0,1,2.944-.748,3.55,3.55,0,0,1,2.7,1.184,4.439,4.439,0,0,1,3.007-1.2,4.619,4.619,0,0,1,2.7.7,3.291,3.291,0,0,1,1.224,2.051,14.115,14.115,0,0,1,.156,2.9q0,2.034,0,4.066h-2.455c0-1.82,0-3.638,0-5.457a1.987,1.987,0,0,0-.924-1.808,2.735,2.735,0,0,0-3.023.491,18.9,18.9,0,0,1,.1,2.793v3.982h-2.455c0-1.788,0-3.577,0-5.365a2.369,2.369,0,0,0-.559-1.677,2.081,2.081,0,0,0-1.689-.456,2.919,2.919,0,0,0-1.72.737q0,3.381,0,6.762c-.825-.005-1.649.01-2.473-.009.016-3.176,0-6.353.008-9.53h2.465C1064.892,119.991,1064.892,120.184,1064.892,120.377Z" transform="translate(-970.499 -109.263)" fill="white"></path>
        <path d="M1468.573,121.516a3.559,3.559,0,0,1,3.594-1.394q0,1.33,0,2.661a3.56,3.56,0,0,0-2.509.191,2.4,2.4,0,0,0-1.077,2.081c-.01,1.556,0,3.111,0,4.667-.819,0-1.638,0-2.456,0v-9.515c.819,0,1.639-.006,2.458,0C1468.573,120.646,1468.577,121.081,1468.573,121.516Z" transform="translate(-1339.271 -109.651)" fill="white"></path>
        <path d="M1549.861,120.012a5.432,5.432,0,0,1,4.305,1.223,4.757,4.757,0,0,1-.412,7.589,5.512,5.512,0,0,1-5.457.431,5.025,5.025,0,0,1-2.523-2.655,4.725,4.725,0,0,1,.268-4.019,5.193,5.193,0,0,1,3.818-2.568m.435,2.161a2.845,2.845,0,0,0-1.439.62,2.669,2.669,0,0,0-.716,3.259,2.843,2.843,0,0,0,3.5,1.359,2.711,2.711,0,0,0,1.743-3.142A2.8,2.8,0,0,0,1550.3,122.173Z" transform="translate(-1411.736 -109.576)" fill="white"></path>
        <path d="M676.367,131.27q0-4.769,0-9.539c.813,0,1.626,0,2.439,0,.01,3.18,0,6.359,0,9.54Q677.59,131.272,676.367,131.27Z" transform="translate(-617.848 -111.198)" fill="white"></path>
        <path d="M931.5,127.377q-.005-2.815,0-5.63h2.454c0,1.823,0,3.645,0,5.468A1.9,1.9,0,0,0,935,129.038a3.3,3.3,0,0,0,3.161-.561c0-2.243,0-4.487,0-6.73q1.226,0,2.455,0v9.539h-2.455q0-.309,0-.618a4.832,4.832,0,0,1-3,.748,3.807,3.807,0,0,1-2.709-1.052A4.567,4.567,0,0,1,931.5,127.377Z" transform="translate(-850.901 -111.214)" fill="white"></path>
    </g>
</svg>
