<?xml version="1.0" encoding="UTF-8"?>
<svg xmlns="http://www.w3.org/2000/svg" width="40pt" height="40pt" viewBox="9 9 22 22" version="1.1">
    <g id="surface1">
        <path style=" stroke:none;fill-rule:nonzero;fill:#0055FF;fill-opacity:1;" d="M 25.503906 13.09375 C 24.414062 12.226562 22.832031 11.738281 20.769531 11.628906 L 13.757812 11.628906 L 13.757812 15.929688 L 12.859375 15.929688 L 12.859375 17.726562 L 13.757812 17.726562 L 13.757812 27.679688 L 17.484375 27.679688 L 17.484375 21.46875 L 22.792969 27.679688 L 27.378906 27.679688 L 21.949219 21.761719 C 25.488281 21.058594 27.246094 19.375 27.230469 16.726562 C 27.171875 15.167969 26.597656 13.960938 25.503906 13.09375 Z M 17.484375 15.929688 L 17.484375 14.449219 L 19.800781 14.449219 C 22.3125 14.558594 23.527344 15.371094 23.453125 16.890625 C 23.503906 18.46875 22.265625 19.277344 19.726562 19.304688 L 17.492188 19.304688 L 17.492188 17.726562 L 19.050781 17.726562 L 19.050781 15.929688 Z M 17.484375 15.929688 "/>
    </g>
</svg>
