<?xml version="1.0" encoding="utf-8"?>
<svg version="1.1" xmlns="http://www.w3.org/2000/svg" xmlns:xlink="http://www.w3.org/1999/xlink" x="0px" y="0px" width="516.3px"
	 height="516.3px" viewBox="0 0 516.3 516.3" enable-background="new 0 0 516.3 516.3" xml:space="preserve">
<g id="Layer_2" fill="#485E88" opacity="0.3">
	<path d="M440.7,75.6C390.3,25.2,329.5,0,258.2,0S126,25.2,75.6,75.6C25.2,126,0,186.9,0,258.2
		c0,71.3,25.2,132.1,75.6,182.5c50.4,50.4,111.3,75.6,182.6,75.6s132.2-25.2,182.6-75.6c50.4-50.4,75.6-111.2,75.6-182.5
		C516.3,186.9,491.1,126,440.7,75.6z M258.2,5.1c69.9,0,129.5,24.7,178.9,74.1c49.4,49.4,74.1,109,74.1,178.9
		c0,69.9-24.7,129.5-74.1,178.9c-49.4,49.4-109,74.1-178.9,74.1c-69.9,0-129.5-24.7-178.9-74.1C29.9,387.7,5.2,328,5.2,258.2
		c0-69.9,24.7-129.6,74.1-178.9C128.6,29.8,188.3,5.1,258.2,5.1z"/>
	<g>
		<path d="M329.2,169c-14.1-11.2-34.5-17.5-61.1-18.9h-90.5v55.5H166v23.2h11.6v128.5h48.1v-80.2l68.5,80.2h59.2
			l-70.1-76.4c45.7-9.1,68.4-30.8,68.2-65C350.7,195.8,343.3,180.2,329.2,169z M225.7,205.6v-19.1h29.9
			c32.4,1.4,48.1,11.9,47.1,31.5c0.7,20.4-15.3,30.8-48.1,31.2h-28.8v-20.4h20.1v-23.2H225.7z"/>
	</g>
	<g>
		<path d="M493.6,241.7c-0.1-1.2-0.6-2.2-1.5-3c-0.9-0.8-2-1.2-3.2-1.1c-1.2,0.1-2.2,0.6-3,1.5
			c-0.8,0.9-1.2,1.9-1.1,3.2c0.1,1.2,0.6,2.2,1.5,3c0.9,0.8,2,1.2,3.2,1.1c1.2-0.1,2.2-0.6,3-1.5C493.3,244,493.6,242.9,493.6,241.7
			z"/>
		<path d="M492.9,261.3c0.9-0.9,1.3-1.9,1.3-3.1c0-1.2-0.4-2.3-1.3-3.1c-0.8-0.9-1.9-1.3-3.1-1.3
			c-1.2,0-2.2,0.4-3.1,1.3c-0.8,0.8-1.3,1.9-1.3,3.1c0,1.2,0.4,2.2,1.3,3.1c0.9,0.8,1.9,1.3,3.1,1.3
			C491,262.5,492,262.1,492.9,261.3z"/>
		<path d="M492.1,277.6c0.9-0.8,1.4-1.8,1.5-3c0.1-1.2-0.3-2.3-1.1-3.2c-0.8-0.9-1.8-1.4-3-1.5
			c-1.2-0.1-2.3,0.3-3.2,1.1c-0.9,0.8-1.4,1.8-1.5,3c-0.1,1.2,0.3,2.3,1.1,3.2c0.8,0.9,1.8,1.4,3,1.5
			C490.2,278.7,491.2,278.4,492.1,277.6z"/>
		<path d="M378.4,56.8c-0.3-1.2-1-2.1-2-2.7c-1.1-0.6-2.1-0.8-3.3-0.4c-1.2,0.3-2.1,1-2.7,2c-0.6,1-0.8,2.1-0.4,3.3
			c0.3,1.2,1,2,2,2.7c1.1,0.6,2.1,0.7,3.3,0.4c1.2-0.3,2-1,2.7-2C378.6,59,378.7,57.9,378.4,56.8z"/>
		<path d="M385.4,70.1c1,0.7,2.1,0.9,3.3,0.7c1.2-0.2,2.1-0.8,2.8-1.8c0.7-1,0.9-2.1,0.7-3.3
			c-0.3-1.2-0.9-2.1-1.9-2.8c-1-0.7-2.1-0.9-3.2-0.7c-1.2,0.3-2.1,0.9-2.8,1.9c-0.7,1-0.9,2.1-0.7,3.3
			C383.8,68.5,384.4,69.4,385.4,70.1z"/>
		<path d="M403.5,72.5c-0.9-0.7-2-1-3.2-0.9c-1.2,0.1-2.2,0.7-2.9,1.6c-0.8,0.9-1.1,2-0.9,3.2
			c0.1,1.2,0.7,2.1,1.7,2.9c0.9,0.7,2,1,3.2,0.9c1.2-0.1,2.2-0.7,2.9-1.6c0.8-1,1.1-2,0.9-3.2C405.1,74.2,404.5,73.2,403.5,72.5z"/>
		<path d="M417.6,86c-0.1-1.2-0.6-2.2-1.5-3c-0.9-0.8-2-1.2-3.2-1.1c-1.2,0-2.2,0.5-3,1.4c-0.8,0.9-1.2,2-1.1,3.2
			c0,1.2,0.5,2.2,1.4,3c0.9,0.8,1.9,1.2,3.2,1.1c1.2-0.1,2.2-0.6,3-1.5C417.3,88.3,417.7,87.2,417.6,86z"/>
		<path d="M429.3,97.6c0-1.2-0.4-2.2-1.2-3.1c-0.9-0.9-1.9-1.3-3.1-1.3c-1.2,0-2.3,0.4-3.1,1.2
			c-0.9,0.8-1.3,1.9-1.3,3.1c0,1.2,0.4,2.2,1.2,3.1c0.8,0.9,1.9,1.3,3.1,1.3c1.2,0,2.2-0.4,3.1-1.2
			C428.8,99.8,429.2,98.8,429.3,97.6z"/>
		<path d="M431.3,109.1c-0.1,1.2,0.2,2.3,1,3.2c0.8,0.9,1.8,1.4,3,1.5c1.2,0.1,2.3-0.2,3.2-1
			c0.9-0.8,1.4-1.7,1.6-2.9c0.1-1.2-0.3-2.3-1.1-3.2c-0.8-0.9-1.7-1.4-2.9-1.5c-1.2-0.1-2.3,0.2-3.2,1
			C431.9,106.9,431.4,107.9,431.3,109.1z"/>
		<path d="M318.3,31.5c-0.7-1-1.5-1.7-2.7-2c-1.2-0.3-2.3-0.1-3.3,0.5c-1.1,0.6-1.7,1.5-2,2.7
			c-0.3,1.2-0.1,2.3,0.5,3.3c0.6,1.1,1.5,1.7,2.7,2c1.2,0.3,2.3,0.1,3.3-0.5c1-0.6,1.7-1.5,2-2.7C319,33.6,318.9,32.5,318.3,31.5z"
		/>
		<path d="M325.8,36.9c-0.4,1.2-0.3,2.3,0.3,3.3c0.5,1.1,1.4,1.8,2.5,2.1c1.2,0.4,2.3,0.3,3.3-0.3
			c1.1-0.5,1.8-1.4,2.1-2.5c0.4-1.1,0.3-2.3-0.2-3.3c-0.6-1.1-1.4-1.8-2.6-2.1c-1.1-0.4-2.3-0.3-3.3,0.3
			C326.9,34.9,326.2,35.7,325.8,36.9z"/>
		<path d="M346.8,39.7c-1.1-0.4-2.2-0.4-3.3,0c-1.1,0.5-1.9,1.3-2.4,2.4c-0.4,1.1-0.4,2.2,0,3.3
			c0.5,1.1,1.3,1.9,2.4,2.4c1.1,0.4,2.2,0.4,3.3,0c1.1-0.5,1.9-1.3,2.3-2.4c0.4-1.1,0.4-2.3,0-3.3C348.7,40.9,347.9,40.1,346.8,39.7
			z"/>
		<path d="M263.7,23.9c-0.9,0.8-1.4,1.9-1.4,3.1c0,1.2,0.4,2.3,1.2,3.1c0.8,0.9,1.8,1.3,3,1.4
			c1.2,0.1,2.3-0.3,3.1-1.2c0.9-0.8,1.3-1.8,1.4-3c0-1.2-0.3-2.3-1.2-3.2c-0.8-0.9-1.8-1.3-3.1-1.4
			C265.5,22.7,264.5,23.1,263.7,23.9z"/>
		<path d="M283.1,23.8c-1.2-0.1-2.3,0.2-3.2,0.9c-0.9,0.8-1.5,1.7-1.6,2.9c-0.1,1.2,0.2,2.3,0.9,3.2
			c0.7,0.9,1.7,1.5,2.9,1.6c1.2,0.1,2.3-0.2,3.2-0.9c0.9-0.8,1.5-1.7,1.6-2.9c0.1-1.2-0.2-2.3-0.9-3.2
			C285.3,24.5,284.3,24,283.1,23.8z"/>
		<path d="M299.4,26.1c-1.2-0.2-2.3,0-3.2,0.7c-1,0.7-1.6,1.6-1.8,2.8c-0.2,1.2,0,2.3,0.7,3.3c0.7,1,1.6,1.6,2.8,1.8
			c1.2,0.2,2.3,0,3.3-0.7c0.9-0.7,1.6-1.6,1.8-2.8c0.2-1.2,0-2.3-0.7-3.3C301.6,26.9,300.6,26.3,299.4,26.1z"/>
		<path d="M364,48.9c-0.4-1.2-1.2-2-2.3-2.5c-1.1-0.5-2.2-0.6-3.3-0.2c-1.2,0.4-2,1.1-2.5,2.2
			c-0.5,1.1-0.6,2.2-0.2,3.3c0.4,1.1,1.1,2,2.2,2.5c1.1,0.5,2.2,0.6,3.3,0.2c1.1-0.4,2-1.2,2.5-2.2C364.3,51.1,364.4,50,364,48.9z"
		/>
		<path d="M466.6,147.5c-0.6-1.1-1.4-1.8-2.6-2.1c-1.2-0.3-2.3-0.2-3.3,0.3c-1.1,0.6-1.7,1.5-2.1,2.6
			c-0.4,1.2-0.3,2.3,0.3,3.3c0.5,1.1,1.4,1.8,2.6,2.1c1.1,0.4,2.3,0.3,3.3-0.3c1.1-0.5,1.8-1.4,2.1-2.6
			C467.2,149.7,467.1,148.6,466.6,147.5z"/>
		<path d="M449.9,122.9c0.1-1.2-0.1-2.3-0.8-3.2c-0.7-1-1.7-1.6-2.8-1.7c-1.2-0.2-2.3,0.1-3.3,0.8
			c-1,0.7-1.6,1.7-1.7,2.9c-0.2,1.2,0.1,2.3,0.8,3.2c0.7,1,1.6,1.6,2.8,1.7c1.2,0.2,2.3-0.1,3.2-0.8
			C449.1,125,449.7,124.1,449.9,122.9z"/>
		<path d="M458.3,133.3c-0.7-1.1-1.6-1.7-2.7-2c-1.2-0.3-2.3-0.1-3.3,0.6c-1,0.6-1.7,1.5-1.9,2.7
			c-0.3,1.2-0.1,2.3,0.5,3.3c0.7,1,1.6,1.7,2.7,2c1.2,0.3,2.3,0.1,3.3-0.6c1-0.6,1.7-1.5,1.9-2.7C459.2,135.4,459,134.3,458.3,133.3
			z"/>
		<path d="M465.7,162.5c-0.4,1.1-0.4,2.2,0.1,3.3c0.5,1.1,1.3,1.9,2.4,2.3c1.1,0.4,2.2,0.4,3.3-0.1
			c1.1-0.5,1.9-1.3,2.3-2.4c0.4-1.1,0.4-2.2-0.1-3.3c-0.5-1.1-1.3-1.9-2.4-2.3c-1.1-0.4-2.2-0.4-3.3,0.1
			C466.9,160.6,466.1,161.4,465.7,162.5z"/>
		<path d="M471.8,180.5c0.4,1.1,1.2,2,2.3,2.5c1.1,0.5,2.2,0.5,3.3,0.1c1.2-0.4,2-1.2,2.5-2.3
			c0.5-1.1,0.5-2.2,0.1-3.3c-0.4-1.1-1.2-2-2.3-2.5c-1.1-0.5-2.2-0.5-3.3-0.1c-1.1,0.4-2,1.2-2.4,2.3
			C471.4,178.3,471.3,179.4,471.8,180.5z"/>
		<path d="M483,190.6c-1.1-0.6-2.2-0.7-3.3-0.4c-1.2,0.3-2,1-2.6,2.1c-0.6,1-0.7,2.1-0.4,3.3c0.3,1.2,1,2,2.1,2.6
			c1.1,0.6,2.1,0.7,3.3,0.4c1.2-0.3,2-1,2.7-2.1c0.5-1.1,0.7-2.1,0.4-3.3C484.7,192,484,191.2,483,190.6z"/>
		<path d="M488.4,212.5c0.7-1,0.8-2.1,0.6-3.3c-0.3-1.2-0.9-2.1-1.9-2.7c-1-0.7-2.1-0.9-3.3-0.6
			c-1.2,0.3-2.1,0.9-2.7,1.9c-0.7,1-0.9,2.1-0.6,3.3c0.3,1.2,0.9,2.1,1.9,2.8c1,0.7,2.1,0.9,3.3,0.6
			C486.8,214.1,487.8,213.5,488.4,212.5z"/>
		<path d="M486.9,221.6c-1.2,0.2-2.1,0.7-2.9,1.7c-0.7,0.9-1,2-0.8,3.2c0.2,1.2,0.8,2.1,1.7,2.9c0.9,0.7,2,1,3.2,0.8
			c1.2-0.2,2.1-0.7,2.9-1.7c0.7-1,1-2.1,0.8-3.3c-0.2-1.2-0.7-2.1-1.7-2.9C489.2,221.7,488.1,221.5,486.9,221.6z"/>
		<path d="M206.8,32.7c-0.3-1.2-1-2.1-2-2.7c-1-0.6-2.1-0.8-3.3-0.5c-1.2,0.3-2.1,0.9-2.7,2c-0.6,1-0.8,2.1-0.5,3.3
			c0.3,1.2,0.9,2.1,2,2.7c1,0.6,2.1,0.8,3.3,0.5c1.2-0.3,2.1-0.9,2.7-2C206.9,35,207.1,33.9,206.8,32.7z"/>
		<path d="M222,32.9c0.7-1,0.9-2.1,0.7-3.2c-0.2-1.2-0.8-2.1-1.8-2.8c-1-0.7-2.1-0.9-3.3-0.7
			c-1.2,0.2-2.1,0.8-2.8,1.8c-0.7,1-1,2.1-0.7,3.3c0.2,1.2,0.8,2.1,1.8,2.8s2.1,0.9,3.2,0.7C220.3,34.5,221.3,33.9,222,32.9z"/>
		<path d="M237.1,24.8c-0.9-0.8-2-1.1-3.2-0.9c-1.2,0.1-2.2,0.7-2.9,1.6c-0.8,0.9-1.1,2-0.9,3.2
			c0.1,1.2,0.7,2.2,1.6,2.9c0.9,0.7,2,1.1,3.2,0.9c1.2-0.1,2.2-0.7,2.9-1.6s1.1-2,0.9-3.2C238.6,26.5,238.1,25.5,237.1,24.8z"/>
		<path d="M247.3,24c-0.8,0.9-1.2,1.9-1.2,3.2c0,1.2,0.5,2.2,1.4,3c0.9,0.8,1.9,1.2,3.1,1.2c1.2,0,2.2-0.5,3.1-1.4
			c0.8-0.9,1.2-1.9,1.2-3.1c0-1.2-0.5-2.2-1.4-3.1c-0.9-0.8-1.9-1.2-3.1-1.2C249.1,22.7,248.1,23.2,247.3,24z"/>
		<path d="M173.6,39.7c-1.1-0.4-2.2-0.5-3.3,0c-1.1,0.4-1.9,1.2-2.4,2.3c-0.5,1.1-0.5,2.2,0,3.3
			c0.4,1.1,1.2,1.9,2.3,2.4c1.1,0.5,2.2,0.5,3.3,0c1.1-0.4,1.9-1.2,2.4-2.3c0.4-1.1,0.5-2.2,0-3.3C175.5,41,174.7,40.2,173.6,39.7z"
		/>
		<path d="M189.1,34.3c-1.1-0.5-2.2-0.6-3.3-0.3c-1.2,0.4-2,1.1-2.5,2.1c-0.5,1.1-0.6,2.2-0.3,3.3
			c0.4,1.2,1.1,2,2.2,2.5c1.1,0.5,2.2,0.7,3.3,0.3c1.2-0.4,2-1.1,2.5-2.1c0.5-1.1,0.7-2.2,0.3-3.3C190.9,35.7,190.1,34.8,189.1,34.3
			z"/>
		<path d="M158.6,46.2c-1.1-0.4-2.3-0.3-3.3,0.2c-1.1,0.5-1.9,1.3-2.2,2.5c-0.4,1.2-0.3,2.3,0.2,3.3
			c0.5,1.1,1.4,1.8,2.5,2.2c1.1,0.4,2.3,0.3,3.3-0.2c1.1-0.5,1.8-1.3,2.2-2.5c0.4-1.1,0.3-2.2-0.2-3.3
			C160.6,47.3,159.7,46.5,158.6,46.2z"/>
		<path d="M140.7,54.1c-1.1,0.6-1.7,1.5-2,2.6c-0.3,1.2-0.2,2.3,0.4,3.3c0.6,1.1,1.5,1.7,2.7,2
			c1.2,0.3,2.3,0.2,3.3-0.4c1.1-0.6,1.7-1.5,2-2.7c0.3-1.1,0.1-2.3-0.4-3.3c-0.6-1-1.5-1.7-2.7-2C142.9,53.4,141.8,53.5,140.7,54.1z
			"/>
		<path d="M78,106.7c-0.8,0.9-1.1,2-1,3.2c0.1,1.2,0.7,2.2,1.6,3c0.9,0.8,2,1.1,3.2,1c1.2-0.1,2.2-0.6,2.9-1.5
			c0.8-0.9,1.1-2,1-3.2c-0.1-1.2-0.6-2.2-1.6-2.9c-0.9-0.8-2-1.1-3.2-1C79.8,105.2,78.8,105.7,78,106.7z"/>
		<path d="M116.7,71.6c-1.2-0.1-2.3,0.1-3.2,0.9c-1,0.7-1.5,1.7-1.7,2.9c-0.1,1.2,0.2,2.3,0.9,3.2
			c0.8,1,1.7,1.5,2.9,1.6c1.2,0.2,2.3-0.1,3.2-0.9c0.9-0.8,1.5-1.7,1.6-2.9c0.1-1.2-0.1-2.3-0.9-3.2
			C118.9,72.3,117.9,71.7,116.7,71.6z"/>
		<path d="M124.9,65.6c-0.2,1.2,0,2.3,0.7,3.3c0.7,1,1.6,1.6,2.8,1.8c1.2,0.3,2.3,0,3.3-0.7c1-0.7,1.6-1.6,1.9-2.8
			c0.2-1.2,0-2.3-0.7-3.3c-0.7-1-1.6-1.6-2.8-1.9c-1.2-0.2-2.3,0-3.3,0.7C125.8,63.5,125.2,64.4,124.9,65.6z"/>
		<path d="M108.1,86.5c0.1-1.2-0.3-2.2-1.1-3.1c-0.8-0.9-1.8-1.4-3-1.5c-1.2,0-2.3,0.3-3.2,1.1
			c-0.9,0.8-1.4,1.8-1.5,3c0,1.2,0.3,2.3,1.2,3.2c0.8,0.9,1.8,1.4,3,1.4c1.2,0.1,2.2-0.3,3.1-1.1C107.6,88.7,108.1,87.7,108.1,86.5z
			"/>
		<path d="M89,94.5c-0.8,0.8-1.2,1.9-1.2,3.1c0,1.2,0.5,2.2,1.3,3.1c0.9,0.8,1.9,1.2,3.1,1.2c1.2,0,2.2-0.5,3.1-1.3
			c0.8-0.9,1.2-1.9,1.2-3.1c0-1.2-0.4-2.2-1.3-3c-0.9-0.9-1.9-1.3-3.1-1.3C90.9,93.2,89.8,93.6,89,94.5z"/>
		<path d="M75.8,121.5c-0.2-1.2-0.8-2.1-1.7-2.8c-1-0.7-2.1-1-3.3-0.8c-1.2,0.2-2.1,0.8-2.8,1.8c-0.7,1-1,2-0.8,3.2
			c0.2,1.2,0.8,2.1,1.8,2.8c0.9,0.7,2,1,3.2,0.8c1.2-0.2,2.1-0.8,2.8-1.7C75.7,123.8,76,122.7,75.8,121.5z"/>
		<path d="M61.5,131.3c-1.2,0.3-2.1,0.9-2.7,2c-0.7,1-0.8,2.1-0.6,3.3c0.3,1.2,0.9,2.1,2,2.7c1,0.7,2.1,0.8,3.3,0.5
			c1.2-0.3,2.1-0.9,2.7-1.9c0.7-1.1,0.8-2.1,0.6-3.3c-0.3-1.2-0.9-2.1-2-2.7C63.7,131.3,62.6,131,61.5,131.3z"/>
		<path d="M56.4,145.7c-1.1-0.5-2.2-0.7-3.3-0.3c-1.2,0.4-2,1.1-2.6,2.1c-0.5,1.1-0.7,2.2-0.3,3.3
			c0.3,1.2,1.1,2,2.1,2.6c1.1,0.6,2.2,0.7,3.3,0.3c1.1-0.4,2-1.1,2.6-2.1c0.5-1.1,0.7-2.2,0.3-3.3C58.2,147.2,57.5,146.3,56.4,145.7
			z"/>
		<path d="M49,160.1c-1.1-0.5-2.2-0.5-3.3-0.1c-1.1,0.4-1.9,1.2-2.4,2.3c-0.5,1.1-0.5,2.2-0.1,3.3
			c0.4,1.1,1.2,1.9,2.3,2.4c1.1,0.5,2.2,0.5,3.3,0.1c1.1-0.4,1.9-1.2,2.4-2.3c0.5-1.1,0.5-2.3,0.1-3.3
			C50.9,161.4,50.1,160.6,49,160.1z"/>
		<path d="M42.7,175c-1.1-0.4-2.3-0.4-3.3,0.1c-1.1,0.5-1.8,1.3-2.2,2.5c-0.4,1.1-0.4,2.3,0.1,3.3
			c0.5,1.1,1.3,1.8,2.5,2.3c1.2,0.4,2.3,0.4,3.3-0.1c1.1-0.5,1.9-1.3,2.3-2.5c0.4-1.1,0.4-2.3-0.1-3.3
			C44.7,176.1,43.9,175.4,42.7,175z"/>
		<path d="M40.1,192.3c-0.6-1-1.5-1.7-2.6-2c-1.2-0.4-2.3-0.2-3.3,0.3c-1.1,0.6-1.7,1.5-2.1,2.7
			c-0.4,1.2-0.2,2.3,0.4,3.3c0.6,1.1,1.5,1.7,2.6,2.1c1.2,0.3,2.3,0.2,3.3-0.4c1.1-0.6,1.7-1.5,2.1-2.6
			C40.8,194.5,40.7,193.3,40.1,192.3z"/>
		<path d="M33.2,205.8c-1.2-0.3-2.3-0.1-3.3,0.6c-1,0.7-1.6,1.6-1.9,2.8c-0.3,1.2-0.1,2.3,0.6,3.3
			c0.7,1,1.6,1.6,2.8,1.9c1.2,0.3,2.3,0.1,3.3-0.6c1-0.7,1.6-1.6,1.9-2.8c0.3-1.2,0.1-2.3-0.6-3.3C35.3,206.7,34.4,206.1,33.2,205.8
			z"/>
		<path d="M30.1,221.7c-1.2-0.2-2.3,0.1-3.2,0.8c-1,0.7-1.5,1.7-1.7,2.9c-0.1,1.2,0.1,2.3,0.8,3.2
			c0.7,0.9,1.7,1.5,2.9,1.7c1.2,0.2,2.3-0.1,3.2-0.8c1-0.7,1.6-1.7,1.7-2.9c0.2-1.2-0.1-2.3-0.8-3.2
			C32.3,222.3,31.3,221.8,30.1,221.7z"/>
		<path d="M25,238.7c-0.9,0.8-1.4,1.8-1.5,3c-0.1,1.2,0.3,2.3,1.1,3.2c0.8,0.9,1.8,1.4,3,1.5
			c1.2,0.1,2.3-0.3,3.2-1.1c0.9-0.8,1.4-1.8,1.5-3c0.1-1.2-0.3-2.3-1.1-3.2c-0.8-0.9-1.8-1.4-3-1.5C26.9,237.6,25.9,237.9,25,238.7z
			"/>
		<path d="M27.3,253.8c-1.2,0-2.2,0.4-3.1,1.3c-0.8,0.8-1.3,1.9-1.3,3.1c0,1.2,0.4,2.2,1.3,3.1
			c0.9,0.8,1.9,1.3,3.1,1.3c1.2,0,2.3-0.4,3.1-1.3c0.9-0.9,1.3-1.9,1.3-3.1c0-1.2-0.4-2.3-1.3-3.1C29.5,254.2,28.5,253.8,27.3,253.8
			z"/>
		<path d="M30.7,271c-0.9-0.8-2-1.2-3.2-1.1c-1.2,0.1-2.2,0.6-3,1.5c-0.8,0.9-1.2,2-1.1,3.2c0.1,1.2,0.6,2.2,1.5,3
			c0.9,0.8,2,1.1,3.2,1c1.2-0.1,2.2-0.6,3-1.5c0.8-0.9,1.1-2,1.1-3.2C32.1,272.8,31.6,271.8,30.7,271z"/>
		<path d="M28.9,286c-1.2,0.1-2.2,0.7-2.9,1.7c-0.8,1-1,2-0.8,3.2c0.1,1.2,0.7,2.1,1.7,2.9c0.9,0.7,2,1,3.2,0.8
			c1.2-0.2,2.2-0.7,2.9-1.7c0.7-1,1-2.1,0.8-3.2c-0.2-1.2-0.7-2.2-1.7-2.9C31.2,286.1,30.1,285.8,28.9,286z"/>
		<path d="M36,308.6c0.7-1,0.8-2.1,0.6-3.3c-0.3-1.2-0.9-2.1-1.9-2.7c-1-0.7-2.1-0.9-3.3-0.6
			c-1.2,0.3-2.1,0.9-2.7,1.9c-0.7,1-0.9,2.1-0.6,3.3c0.3,1.2,0.9,2.1,1.9,2.8c1,0.6,2.1,0.8,3.3,0.6C34.4,310.3,35.3,309.6,36,308.6
			z"/>
		<path d="M32,323.1c0.3,1.2,1,2,2.1,2.6c1.1,0.6,2.1,0.7,3.3,0.4c1.2-0.3,2-1,2.7-2.1c0.5-1.1,0.7-2.1,0.4-3.3
			c-0.4-1.2-1.1-2-2.1-2.6c-1.1-0.6-2.2-0.7-3.3-0.4c-1.2,0.3-2,1-2.6,2.1C31.8,320.8,31.7,321.9,32,323.1z"/>
		<path d="M51.3,353.8c0.4-1.1,0.4-2.3-0.1-3.3c-0.5-1.1-1.3-1.9-2.4-2.3c-1.2-0.4-2.3-0.4-3.4,0.1
			c-1.1,0.5-1.9,1.3-2.3,2.4c-0.4,1.1-0.4,2.2,0.1,3.3c0.5,1.1,1.3,1.9,2.4,2.3c1.1,0.4,2.2,0.4,3.3-0.1
			C50.1,355.7,50.9,354.9,51.3,353.8z"/>
		<path d="M55.6,362.5c-1.2-0.4-2.3-0.3-3.3,0.3c-1.1,0.5-1.8,1.4-2.1,2.6c-0.4,1.1-0.3,2.3,0.3,3.3
			c0.5,1.1,1.4,1.8,2.6,2.1c1.2,0.3,2.3,0.2,3.3-0.3c1.1-0.6,1.8-1.4,2.1-2.6c0.4-1.1,0.2-2.3-0.3-3.3
			C57.6,363.6,56.8,362.9,55.6,362.5z"/>
		<path d="M45.2,339.1c0.5-1.1,0.5-2.2,0.1-3.3c-0.4-1.2-1.2-2-2.2-2.5c-1.1-0.5-2.2-0.6-3.3-0.1
			c-1.2,0.4-2,1.2-2.5,2.3c-0.5,1.1-0.6,2.2-0.1,3.3c0.4,1.1,1.2,2,2.3,2.5c1.1,0.5,2.2,0.5,3.3,0.1
			C43.9,340.9,44.7,340.2,45.2,339.1z"/>
		<path d="M66.7,381.7c0.3-1.2,0-2.3-0.6-3.3c-0.7-1-1.6-1.7-2.7-1.9c-1.2-0.3-2.3-0.1-3.3,0.5
			c-1,0.7-1.7,1.5-1.9,2.7c-0.3,1.2-0.1,2.3,0.5,3.3c0.7,1.1,1.6,1.7,2.7,2c1.2,0.3,2.3,0.1,3.3-0.5
			C65.7,383.8,66.4,382.8,66.7,381.7z"/>
		<path d="M70.8,398.4c1.2,0.2,2.3-0.1,3.2-0.8c0.9-0.7,1.6-1.7,1.7-2.8c0.2-1.2-0.1-2.3-0.8-3.3
			c-0.7-1-1.6-1.6-2.8-1.7c-1.2-0.2-2.3,0.1-3.2,0.8c-1,0.7-1.6,1.7-1.7,2.8c-0.2,1.2,0,2.3,0.8,3.2
			C68.6,397.6,69.6,398.2,70.8,398.4z"/>
		<path d="M85.7,407.2c0.1-1.2-0.3-2.3-1.1-3.2c-0.8-0.9-1.7-1.5-2.9-1.5c-1.2-0.1-2.3,0.2-3.2,1
			c-0.9,0.8-1.4,1.8-1.5,3c-0.1,1.2,0.2,2.3,1,3.2c0.8,0.9,1.8,1.4,3,1.5c1.2,0.1,2.3-0.2,3.2-1C85.1,409.4,85.6,408.4,85.7,407.2z"
		/>
		<path d="M92.3,414.4c-1.2,0-2.3,0.4-3.1,1.2c-0.9,0.8-1.3,1.9-1.3,3.1c0,1.2,0.4,2.2,1.2,3.1
			c0.8,0.8,1.9,1.3,3.1,1.3c1.2,0,2.2-0.4,3.1-1.2c0.8-0.8,1.3-1.9,1.3-3.1c0-1.2-0.4-2.3-1.2-3.1C94.5,414.9,93.4,414.4,92.3,414.4
			z"/>
		<path d="M106.7,426.7c-0.9-0.8-1.9-1.2-3.1-1.1c-1.2,0.1-2.2,0.5-3.1,1.5c-0.8,0.9-1.2,2-1.1,3.2
			c0.1,1.2,0.5,2.2,1.5,3c0.9,0.8,1.9,1.2,3.2,1.1c1.2,0,2.2-0.5,3-1.4c0.8-0.9,1.2-2,1.1-3.2C108.1,428.6,107.6,427.5,106.7,426.7z
			"/>
		<path d="M130.1,454.2c1.2-0.3,2.1-0.9,2.8-1.9c0.7-1,0.9-2.1,0.7-3.3c-0.3-1.2-0.9-2.1-1.9-2.8
			c-1-0.7-2.1-0.9-3.3-0.7c-1.2,0.2-2.1,0.8-2.8,1.9c-0.7,1-0.9,2.1-0.7,3.3c0.2,1.2,0.8,2.1,1.8,2.8
			C127.8,454.2,128.9,454.4,130.1,454.2z"/>
		<path d="M112.7,437.7c-0.8,1-1.1,2-0.9,3.2c0.1,1.2,0.7,2.1,1.7,2.9c0.9,0.7,2,1.1,3.2,0.9
			c1.2-0.2,2.1-0.7,2.9-1.7c0.7-0.9,1.1-2,0.9-3.2c-0.1-1.2-0.7-2.2-1.7-2.9c-0.9-0.8-2-1.1-3.2-0.9
			C114.4,436.2,113.4,436.7,112.7,437.7z"/>
		<path d="M147.2,457.3c-0.3-1.2-1-2.1-2-2.7c-1.1-0.6-2.1-0.8-3.3-0.4c-1.2,0.3-2.1,1-2.7,2c-0.6,1-0.8,2.1-0.4,3.3
			c0.3,1.2,1,2,2,2.7c1.1,0.6,2.1,0.7,3.3,0.4c1.2-0.3,2-1,2.7-2C147.3,459.6,147.5,458.4,147.2,457.3z"/>
		<path d="M153.2,464.1c-0.5,1.1-0.6,2.2-0.2,3.3c0.4,1.1,1.1,2,2.2,2.5c1.1,0.5,2.2,0.6,3.3,0.2
			c1.1-0.4,2-1.1,2.5-2.2c0.5-1.1,0.6-2.2,0.3-3.3c-0.4-1.2-1.2-2-2.3-2.5c-1.1-0.5-2.2-0.6-3.3-0.2
			C154.6,462.2,153.7,463,153.2,464.1z"/>
		<path d="M175.9,470.8c-0.5-1.1-1.3-1.9-2.4-2.3c-1.1-0.4-2.2-0.4-3.3,0c-1.1,0.4-1.9,1.2-2.4,2.4
			c-0.4,1.1-0.4,2.3,0,3.3c0.4,1.1,1.2,1.9,2.4,2.4c1.1,0.4,2.3,0.4,3.4,0c1.1-0.5,1.9-1.3,2.3-2.4
			C176.4,473.1,176.4,472,175.9,470.8z"/>
		<path d="M190.9,476.1c-0.5-1.1-1.4-1.8-2.5-2.1c-1.1-0.4-2.3-0.3-3.3,0.2s-1.8,1.4-2.2,2.6
			c-0.4,1.1-0.3,2.3,0.3,3.3c0.5,1.1,1.4,1.8,2.5,2.2c1.2,0.4,2.3,0.3,3.3-0.3c1.1-0.5,1.8-1.4,2.2-2.5
			C191.6,478.3,191.5,477.2,190.9,476.1z"/>
		<path d="M253.7,486.3c-0.8-0.9-1.9-1.3-3.1-1.4c-1.2,0-2.3,0.4-3.1,1.2c-0.9,0.8-1.4,1.9-1.4,3.1
			c0,1.2,0.4,2.3,1.2,3.1c0.8,0.9,1.8,1.3,3,1.4c1.2,0,2.3-0.4,3.2-1.2c0.8-0.8,1.3-1.8,1.3-3.1
			C254.9,488.2,254.5,487.2,253.7,486.3z"/>
		<path d="M231.6,484.7c-0.9,0.8-1.5,1.7-1.6,2.9c-0.1,1.2,0.2,2.3,0.9,3.2c0.8,0.9,1.7,1.5,2.9,1.6
			c1.2,0.1,2.3-0.2,3.2-1c0.9-0.8,1.5-1.7,1.6-2.9c0.1-1.2-0.2-2.3-0.9-3.2s-1.7-1.5-2.9-1.6C233.6,483.7,232.5,484,231.6,484.7z"/>
		<path d="M217.6,490.2c1.2,0.2,2.3,0,3.3-0.7c0.9-0.7,1.6-1.6,1.8-2.8c0.2-1.2,0-2.3-0.7-3.3
			c-0.7-1-1.6-1.6-2.8-1.8c-1.2-0.2-2.3,0-3.3,0.7c-1,0.7-1.6,1.6-1.8,2.8c-0.2,1.2,0,2.3,0.7,3.2
			C215.5,489.4,216.4,490,217.6,490.2z"/>
		<path d="M200.4,478.8c-1.1,0.6-1.7,1.5-2,2.7c-0.3,1.2-0.1,2.3,0.5,3.3c0.6,1.1,1.5,1.7,2.7,2
			c1.2,0.3,2.3,0.1,3.3-0.5c1-0.6,1.7-1.5,2-2.7c0.3-1.2,0.1-2.3-0.5-3.3c-0.7-1.1-1.5-1.7-2.7-2C202.5,478,201.4,478.2,200.4,478.8
			z"/>
		<path d="M491.9,291c0.2-1.2-0.1-2.3-0.8-3.3c-0.7-0.9-1.7-1.5-2.9-1.7c-1.2-0.1-2.3,0.1-3.2,0.8
			c-1,0.7-1.5,1.7-1.7,2.9c-0.2,1.2,0.1,2.3,0.8,3.2c0.7,1,1.7,1.5,2.9,1.7c1.2,0.2,2.3-0.1,3.2-0.8
			C491.1,293.1,491.7,292.1,491.9,291z"/>
		<path d="M485.6,302c-1.2-0.2-2.3,0-3.3,0.6c-1,0.7-1.6,1.6-1.9,2.8c-0.3,1.2-0.1,2.3,0.6,3.3
			c0.7,1,1.6,1.7,2.8,1.9c1.2,0.3,2.3,0,3.3-0.6c1-0.7,1.6-1.6,1.9-2.8c0.3-1.2,0.1-2.3-0.6-3.3C487.8,302.9,486.8,302.2,485.6,302z
			"/>
		<path d="M476.7,320.7c-0.4,1.2-0.2,2.3,0.4,3.3c0.6,1.1,1.5,1.7,2.6,2.1c1.2,0.3,2.3,0.2,3.3-0.4
			c1.1-0.6,1.7-1.4,2.1-2.6c0.3-1.2,0.2-2.3-0.4-3.3c-0.6-1-1.5-1.7-2.6-2c-1.2-0.3-2.3-0.2-3.3,0.4
			C477.7,318.7,477,319.5,476.7,320.7z"/>
		<path d="M477.7,341.2c1.1-0.5,1.8-1.3,2.3-2.4c0.4-1.2,0.4-2.3-0.1-3.3c-0.5-1.1-1.3-1.9-2.5-2.3
			c-1.1-0.4-2.3-0.4-3.3,0.1c-1.1,0.5-1.8,1.3-2.3,2.5c-0.4,1.1-0.4,2.2,0.1,3.3c0.5,1.1,1.3,1.9,2.5,2.3
			C475.5,341.8,476.6,341.7,477.7,341.2z"/>
		<path d="M471.6,348.2c-1.1-0.5-2.2-0.5-3.3-0.1c-1.1,0.4-1.9,1.2-2.4,2.3c-0.5,1.1-0.5,2.2-0.1,3.3
			c0.4,1.1,1.2,2,2.3,2.4c1.1,0.5,2.2,0.5,3.3,0.1c1.1-0.4,1.9-1.2,2.4-2.3c0.5-1.1,0.5-2.2,0.1-3.3
			C473.5,349.5,472.7,348.7,471.6,348.2z"/>
		<path d="M458.9,364.7c-0.6,1.1-0.7,2.1-0.3,3.3c0.3,1.1,1.1,2,2.1,2.6c1.1,0.5,2.2,0.7,3.3,0.3
			c1.1-0.3,2-1,2.6-2.1c0.5-1.1,0.7-2.2,0.3-3.3c-0.4-1.1-1.1-2-2.1-2.5c-1.1-0.6-2.2-0.7-3.3-0.3
			C460.3,362.9,459.4,363.6,458.9,364.7z"/>
		<path d="M451,378.4c-0.7,1.1-0.8,2.1-0.5,3.3c0.3,1.2,0.9,2.1,1.9,2.7c1.1,0.6,2.1,0.8,3.3,0.5
			c1.2-0.3,2.1-0.9,2.7-1.9c0.6-1.1,0.8-2.1,0.5-3.3c-0.3-1.2-0.9-2.1-2-2.7c-1-0.6-2.1-0.8-3.3-0.5
			C452.5,376.7,451.6,377.4,451,378.4z"/>
		<path d="M442.1,391.5c-0.7,1-1,2.1-0.8,3.2c0.2,1.2,0.8,2.2,1.7,2.9c1,0.7,2.1,1,3.2,0.8c1.2-0.2,2.1-0.8,2.9-1.7
			c0.7-1,1-2.1,0.8-3.2c-0.2-1.2-0.8-2.1-1.7-2.8c-1-0.7-2.1-1-3.2-0.8C443.8,389.9,442.8,390.5,442.1,391.5z"/>
		<path d="M343.5,468.6c-1.1,0.4-1.9,1.2-2.4,2.3c-0.5,1.1-0.5,2.2,0,3.3c0.4,1.1,1.2,1.9,2.3,2.4
			c1.1,0.5,2.2,0.5,3.3,0c1.1-0.4,1.9-1.2,2.4-2.4c0.4-1.1,0.5-2.2,0-3.3c-0.4-1.1-1.2-1.9-2.3-2.4
			C345.7,468.1,344.6,468.1,343.5,468.6z"/>
		<path d="M356,467.9c0.5,1.1,1.4,1.8,2.5,2.2c1.1,0.4,2.3,0.3,3.3-0.2c1.1-0.5,1.8-1.3,2.2-2.5
			c0.4-1.1,0.3-2.3-0.2-3.3c-0.5-1.1-1.3-1.8-2.5-2.2c-1.1-0.4-2.3-0.3-3.3,0.2c-1.1,0.5-1.9,1.3-2.2,2.5
			C355.4,465.7,355.5,466.8,356,467.9z"/>
		<path d="M372,454.7c-1.1,0.6-1.7,1.5-2,2.7c-0.3,1.2-0.2,2.3,0.4,3.3c0.6,1.1,1.5,1.7,2.7,2
			c1.2,0.3,2.3,0.2,3.3-0.4c1.1-0.6,1.7-1.5,2-2.7c0.3-1.2,0.1-2.3-0.4-3.3c-0.6-1.1-1.5-1.7-2.7-2C374.1,453.9,373,454.1,372,454.7
			z"/>
		<path d="M313.4,478.3c-1.2,0.3-2.1,0.9-2.7,2c-0.7,1-0.8,2.1-0.5,3.3c0.3,1.2,0.9,2.1,2,2.7c1,0.6,2.1,0.8,3.3,0.5
			c1.2-0.3,2.1-1,2.7-2c0.6-1,0.8-2.1,0.5-3.3c-0.3-1.2-0.9-2.1-2-2.7C315.7,478.2,314.6,478,313.4,478.3z"/>
		<path d="M302.3,488.4c0.7-1,0.9-2.1,0.7-3.3c-0.2-1.2-0.8-2.1-1.8-2.8c-1-0.7-2.1-0.9-3.3-0.7
			c-1.2,0.2-2.1,0.8-2.8,1.8c-0.7,1-0.9,2.1-0.7,3.3c0.2,1.2,0.8,2.1,1.8,2.8c1,0.7,2.1,0.9,3.3,0.7
			C300.6,490,301.6,489.4,302.3,488.4z"/>
		<path d="M286.1,490.9c0.7-0.9,1.1-2,0.9-3.2c-0.1-1.2-0.7-2.2-1.6-2.9c-0.9-0.8-2-1.1-3.2-0.9
			c-1.2,0.1-2.2,0.7-2.9,1.6c-0.8,0.9-1.1,2-0.9,3.2c0.1,1.2,0.7,2.2,1.6,2.9c0.9,0.8,2,1.1,3.2,0.9
			C284.3,492.3,285.3,491.8,286.1,490.9z"/>
		<path d="M263.4,486.3c-0.8,0.9-1.2,1.9-1.2,3.2c0,1.2,0.5,2.2,1.4,3c0.9,0.8,1.9,1.2,3.1,1.2
			c1.2,0,2.2-0.5,3.1-1.4c0.8-0.9,1.2-1.9,1.2-3.1c0-1.2-0.5-2.2-1.4-3.1c-0.9-0.8-1.9-1.2-3.1-1.2
			C265.2,485,264.2,485.4,263.4,486.3z"/>
		<path d="M333.9,480c0.5-1.1,0.6-2.2,0.3-3.3c-0.4-1.2-1.1-2-2.2-2.6c-1.1-0.5-2.2-0.6-3.3-0.3
			c-1.2,0.4-2,1.1-2.5,2.2c-0.6,1.1-0.7,2.2-0.3,3.3c0.4,1.1,1.1,2,2.1,2.5c1.1,0.5,2.2,0.7,3.3,0.3
			C332.5,481.8,333.4,481.1,333.9,480z"/>
		<path d="M440,406.4c-0.1-1.2-0.6-2.1-1.5-2.9c-0.9-0.8-2-1.1-3.2-1s-2.2,0.6-2.9,1.6c-0.8,0.9-1.1,2-1,3.2
			c0.1,1.2,0.6,2.2,1.5,3c0.9,0.8,2,1.1,3.2,1c1.2-0.1,2.2-0.6,2.9-1.5C439.8,408.7,440.2,407.6,440,406.4z"/>
		<path d="M424.8,414.4c-1.2,0-2.2,0.5-3.1,1.3c-0.8,0.9-1.2,1.9-1.2,3.1c0,1.2,0.5,2.2,1.3,3.1
			c0.9,0.9,1.9,1.3,3.1,1.2c1.2,0,2.2-0.4,3.1-1.3c0.8-0.9,1.2-1.9,1.2-3.1c0-1.2-0.5-2.2-1.3-3.1C427,414.8,426,414.4,424.8,414.4z
			"/>
		<path d="M417.6,430.2c0.1-1.2-0.3-2.2-1.1-3.1c-0.8-0.9-1.8-1.4-3-1.5c-1.2-0.1-2.3,0.3-3.1,1.1
			c-0.9,0.8-1.4,1.8-1.5,3c-0.1,1.2,0.3,2.3,1.1,3.2c0.8,0.9,1.8,1.4,3,1.4c1.2,0.1,2.3-0.3,3.1-1.1
			C417.1,432.4,417.6,431.5,417.6,430.2z"/>
		<path d="M398.2,437c-0.9,0.8-1.5,1.7-1.6,2.9c-0.2,1.2,0.1,2.3,0.9,3.2c0.8,0.9,1.7,1.5,2.9,1.6
			c1.2,0.1,2.3-0.1,3.2-0.9c0.9-0.7,1.5-1.7,1.6-2.9c0.1-1.2-0.1-2.3-0.9-3.2c-0.7-0.9-1.7-1.5-2.9-1.7
			C400.3,435.9,399.2,436.2,398.2,437z"/>
		<path d="M392.2,450.7c0.2-1.2,0-2.3-0.7-3.2c-0.7-1-1.6-1.6-2.8-1.9c-1.2-0.2-2.3,0-3.3,0.7
			c-1,0.7-1.6,1.6-1.9,2.8c-0.3,1.2,0,2.3,0.7,3.3c0.7,1,1.6,1.6,2.8,1.8c1.2,0.3,2.3,0,3.3-0.7
			C391.3,452.8,391.9,451.9,392.2,450.7z"/>
	</g>
	<g>
		<path d="M264.8,75.6c-1.1,0-2.3-0.1-3.3-0.1c-0.5,0-0.9,0-1.4,0l3.8,3.1l4.2-2.7C267,75.7,265.9,75.6,264.8,75.6z"
		/>
		<path d="M271,75.9c-0.5,0-0.9-0.1-1.4-0.1l3.6,3.3l4.3-2.5c-1.1-0.1-2.1-0.3-3.2-0.4C273.2,76.1,272.1,76,271,75.9
			z"/>
		<path d="M280.5,76.9c-0.4-0.1-0.9-0.1-1.4-0.2l3.5,3.5l4.4-2.3c-1.1-0.2-2.1-0.4-3.2-0.5
			C282.7,77.2,281.7,77,280.5,76.9z"/>
		<path d="M284.7,85.1l-2.5-2.5l-3.1,1.7l2.5,2.3L284.7,85.1z"/>
		<path d="M275.6,83.9l-2.6-2.4l-3.1,1.8l2.6,2.1L275.6,83.9z"/>
		<path d="M274.7,80.2l2.9,2.6l3.3-1.7l-2.8-2.8L274.7,80.2z"/>
		<path d="M273.4,92l2.6,1.9l2.9-1.2l-2.6-2L273.4,92z"/>
		<path d="M272,90.9l3.1-1.3l-2.7-2.2l-3.1,1.6L272,90.9z"/>
		<path d="M274.3,86.8l2.4,1.9l3.3-1.5l-2.5-2.1L274.3,86.8z"/>
		<path d="M283.2,88l2.3,2l3.3-1.3l-2.4-2.3L283.2,88z"/>
		<path d="M285.1,91.9l-3,1.2l2.5,2l2.9-1L285.1,91.9z"/>
		<path d="M280.7,91.9l3.1-1.2l-2.6-2.3l-3.2,1.4L280.7,91.9z"/>
		<path d="M266.5,83.2l-2.7-2.3l-2.9,2l2.7,2L266.5,83.2z"/>
		<path d="M268.6,77.4l-3.3,2.1l3.1,2.5l3.2-1.9L268.6,77.4z"/>
		<path d="M262.2,79.6l-3-2.5l-3.2,2.3l3.1,2.3L262.2,79.6z"/>
		<path d="M263.4,86.8l-3,1.7l2.8,1.8l3-1.5L263.4,86.8z"/>
		<path d="M263.1,92.4l-2.6,1.4l2.5,1.4l2.7-1.2L263.1,92.4z"/>
		<path d="M261.5,91.3l-2.8-1.8l-2.8,1.6l2.8,1.6L261.5,91.3z"/>
		<path d="M258.9,87.6l3.1-1.8l-2.7-1.9l-3,2L258.9,87.6z"/>
		<path d="M267.8,87.9l3.2-1.6l-2.6-2l-3.1,1.9L267.8,87.9z"/>
		<path d="M270.2,91.8l-2.7-1.9l-2.8,1.5l2.7,1.7L270.2,91.8z"/>
		<path d="M280,96.7l2.8-0.9l-2.4-1.9l-2.7,1.1L280,96.7z"/>
		<path d="M271.5,95.7l2.7-1l-2.4-1.8l-2.7,1.3L271.5,95.7z"/>
		<path d="M314.9,84.8c-1-0.3-2-0.7-3.1-1c-1.1-0.3-2.1-0.7-3.2-1c-0.4-0.1-0.9-0.3-1.3-0.4l2.8,4L314.9,84.8z"/>
		<path d="M306,83.7l-3.7,1.4l2.5,3.1l3.5-1.2L306,83.7z"/>
		<path d="M301.1,83.8l4.7-1.8c-1.1-0.3-2.1-0.6-3.1-0.8c-1.1-0.3-2.2-0.6-3.2-0.8c-0.5-0.1-0.9-0.3-1.3-0.4
			L301.1,83.8z"/>
		<path d="M300.9,91.6l2.1,2.3l3.5-0.9l-2.1-2.5L300.9,91.6z"/>
		<path d="M308.2,92.4l3.3-0.9l-2-2.9l-3.4,1.2L308.2,92.4z"/>
		<path d="M313,93l-3.5,1l2,2.4l3.5-0.8L313,93z"/>
		<path d="M315.1,86.5l-3.7,1.2l2.3,3.2l3.6-1L315.1,86.5z"/>
		<path d="M296.8,81.4l-3.6,1.6l2.6,2.9l3.5-1.4L296.8,81.4z"/>
		<path d="M296.4,79.7c-1-0.2-2.1-0.5-3.1-0.7c-1.1-0.2-2.2-0.5-3.3-0.7c-0.4-0.1-0.9-0.2-1.3-0.3l3.3,3.7
			L296.4,79.7z"/>
		<path d="M286.7,84.2l3.4-1.5l-2.6-3l-3.5,1.7L286.7,84.2z"/>
		<path d="M286.9,91.2l2.5,2.2l3.2-1l-2.4-2.4L286.9,91.2z"/>
		<path d="M288.2,85.6l2.4,2.4l3.2-1.2l-2.3-2.7L288.2,85.6z"/>
		<path d="M300.5,86.1l-3.3,1.3l2.3,2.5l3.2-1.1L300.5,86.1z"/>
		<path d="M298.9,91.8l-3.3,1.1l2.4,2.4l3.2-0.9L298.9,91.8z"/>
		<path d="M294.3,91.6l3.4-1.1l-2.2-2.4l-3.3,1.3L294.3,91.6z"/>
		<path d="M297.5,97.2l-2.8,0.8l2.1,1.9l2.9-0.6L297.5,97.2z"/>
		<path d="M290.7,94.5l2.4,2.2l2.9-0.9l-2.3-2.3L290.7,94.5z"/>
		<path d="M289,95.4l-2.8,1l2.2,1.8l2.8-0.8L289,95.4z"/>
		<path d="M309.9,101.3l3-0.5l-2.1-2.5l-3.1,0.7L309.9,101.3z"/>
		<path d="M312.7,97.8l2.1,2.6l3.3-0.5l-2-2.8L312.7,97.8z"/>
		<path d="M314.1,102.3l-2.9,0.5l1.9,2.1l2.9-0.3L314.1,102.3z"/>
		<path d="M307.8,101.8l-2-2.2l-2.9,0.7l2,2L307.8,101.8z"/>
		<path d="M301.5,98.8l3-0.7l-2.2-2.4l-3.1,0.8L301.5,98.8z"/>
		<path d="M304.2,95.2l2.3,2.5l3.3-0.7l-2.2-2.7L304.2,95.2z"/>
		<path d="M335.4,92.9c-0.4-0.2-0.8-0.4-1.2-0.6l2.2,4.4l4.9-0.8c-0.9-0.5-1.9-1-2.9-1.5
			C337.4,93.9,336.4,93.4,335.4,92.9z"/>
		<path d="M320.1,90.8l2.1,3.3l3.6-0.8l-1.9-3.5L320.1,90.8z"/>
		<path d="M320.9,86.8c-1.1-0.4-2.1-0.8-3.2-1.2c-0.4-0.1-0.9-0.3-1.3-0.5l2.7,4.2l4.8-1.3
			C322.9,87.6,321.9,87.2,320.9,86.8z"/>
		<path d="M329.8,90.4c-1.1-0.5-2.1-0.9-3.1-1.3c-0.4-0.2-0.9-0.4-1.3-0.5l2.4,4.3l4.8-1.1
			C331.7,91.3,330.7,90.9,329.8,90.4z"/>
		<path d="M328.6,98.1l-1.7-3.1l-3.5,0.8l1.8,2.8L328.6,98.1z"/>
		<path d="M326.4,100.4l1.7,2.6l3.5-0.4l-1.7-2.8L326.4,100.4z"/>
		<path d="M316.8,95.3l3.3-0.7l-1.9-3l-3.4,1L316.8,95.3z"/>
		<path d="M321.6,96.2l-3.5,0.8l1.8,2.5l3.5-0.6L321.6,96.2z"/>
		<path d="M319.1,101.3l-3.2,0.5l2,2.5l3.1-0.4L319.1,101.3z"/>
		<path d="M319.2,105.9l1.8,2.2l2.9-0.1l-1.8-2.4L319.2,105.9z"/>
		<path d="M329,107.5l-1.8-2.7l-3.2,0.4l1.9,2.6L329,107.5z"/>
		<path d="M327.1,109.3l1.7,2.3h2.9l-1.6-2.5L327.1,109.3z"/>
		<path d="M323,103.7l3.3-0.3l-1.9-2.9L321,101L323,103.7z"/>
		<path d="M343.9,97.2c-0.4-0.2-0.8-0.4-1.2-0.7l2,4.5l4.9-0.5c-0.9-0.6-1.9-1.1-2.8-1.6
			C345.9,98.3,344.9,97.7,343.9,97.2z"/>
		<path d="M339,101.7l3.7-0.4l-1.6-3.6l-3.9,0.6L339,101.7z"/>
		<path d="M331.8,99.5l1.7,2.9l3.3-0.4l-1.5-3.2L331.8,99.5z"/>
		<path d="M330.7,97.7l3.7-0.6l-1.7-3.6l-3.9,0.8L330.7,97.7z"/>
		<path d="M334.5,104.2l1.6,2.7l3.5-0.2l-1.5-2.9L334.5,104.2z"/>
		<path d="M331.9,108.8l1.8,2.7l3.1-0.1l-1.7-2.8L331.9,108.8z"/>
		<path d="M331,107.3l3.3-0.1l-1.7-3l-3.5,0.4L331,107.3z"/>
		<path d="M342.5,108.5l1.4,2.8l3.6,0l-1.4-2.9L342.5,108.5z"/>
		<path d="M342.1,111.4l-1.6-3.1l-3.5,0.2l1.7,2.9H342.1z"/>
		<path d="M339.9,103.6l1.5,3l3.4-0.2l-1.4-3.3L339.9,103.6z"/>
		<path d="M349.5,102.2l-3.9,0.4l1.6,3.6l3.7-0.2L349.5,102.2z"/>
		<path d="M351.5,107.8l-3.5,0.3l1.3,3.1h3.4L351.5,107.8z"/>
		<path d="M354.9,111.1h3.7l-1.2-3.8l-3.9,0.2L354.9,111.1z"/>
		<path d="M357.8,105.6c-0.9-0.6-1.8-1.2-2.7-1.8c-0.9-0.6-1.9-1.2-2.8-1.8c-0.4-0.2-0.8-0.5-1.2-0.7l1.7,4.6
			L357.8,105.6z"/>
		<path d="M365.6,111c-0.8-0.6-1.7-1.3-2.6-1.9c-0.9-0.7-1.8-1.3-2.7-2c-0.4-0.3-0.8-0.5-1.2-0.8l1.5,4.7L365.6,111z
			"/>
		<path d="M372.7,118.6l-3.9-0.2l1,3.8l3.7,0.4L372.7,118.6z"/>
		<path d="M370.7,114.9c-0.9-0.7-1.7-1.4-2.6-2.1c-0.4-0.3-0.7-0.6-1.1-0.8l1.2,4.8l5,0.2
			C372.3,116.2,371.5,115.6,370.7,114.9z"/>
		<path d="M366.2,116.6l-1-3.9l-3.9,0l1.2,3.7L366.2,116.6z"/>
		<path d="M366.7,118.6l-3.5-0.1l1,3.2l3.4,0.3L366.7,118.6z"/>
		<path d="M362.9,123.2l-3.5-0.4l1.2,3.1l3.3,0.5L362.9,123.2z"/>
		<path d="M364.8,123.7l0.9,2.9l3.5,0.6l-0.9-3.2L364.8,123.7z"/>
		<path d="M364.5,128.1l-3.2-0.5l1.2,3.1l3,0.5L364.5,128.1z"/>
		<path d="M370.3,124.1l0.9,3.3l3.3,0.5l-0.7-3.5L370.3,124.1z"/>
		<path d="M362.3,121.5l-1.1-3.1l-3.6-0.1l1.1,2.9L362.3,121.5z"/>
		<path d="M369.8,128.9l-3.5-0.5l1.1,3.2l3.3,0.7L369.8,128.9z"/>
		<path d="M355,116.2l-1.2-3.1l-3.6,0.1l1.2,2.8L355,116.2z"/>
		<path d="M352.3,117.7l1.4,3.1l3.3,0.4l-1.2-3.2L352.3,117.7z"/>
		<path d="M355.7,113.1l1.2,3.2l3.4,0.2l-1.1-3.4L355.7,113.1z"/>
		<path d="M344.8,112.9l1.6,3l3.3,0.2l-1.4-3.2H344.8z"/>
		<path d="M346.6,120.2l-1.4-2.7l-3-0.1l1.5,2.5L346.6,120.2z"/>
		<path d="M348.6,120.3l3.1,0.3l-1.3-3l-3.2-0.2L348.6,120.3z"/>
		<path d="M349.5,122.1l1.3,2.5l2.9,0.5l-1.2-2.8L349.5,122.1z"/>
		<path d="M358.7,125.7l-1.2-3.1l-3.2-0.3l1.3,3L358.7,125.7z"/>
		<path d="M359.4,127.5l-2.9-0.4l1.2,2.6l2.9,0.6L359.4,127.5z"/>
		<path d="M373.1,134.2l0.9,3.2l3.2,0.9l-0.7-3.4L373.1,134.2z"/>
		<path d="M368,133.2l1,3.1l3,0.7l-0.8-3.2L368,133.2z"/>
		<path d="M372.6,138.9l-2.9-0.7l0.9,2.7l2.8,0.9L372.6,138.9z"/>
		<path d="M366.1,133l-2.9-0.5l1,2.7l2.8,0.8L366.1,133z"/>
		<path d="M371.8,129.5l0.8,3l3.5,0.7l-0.7-3.2L371.8,129.5z"/>
		<path d="M344.3,115.8l-1.5-2.9h-3.2l1.6,2.8L344.3,115.8z"/>
		<path d="M339.2,115.7l-1.5-2.6l-3,0.1l1.6,2.4L339.2,115.7z"/>
		<path d="M375.5,118.8c-0.3-0.3-0.7-0.6-1-0.9l1,4.8l4.9,0.5c-0.8-0.8-1.6-1.5-2.4-2.2
			C377.2,120.2,376.3,119.5,375.5,118.8z"/>
		<path d="M376.7,128.2l3.7,0.5l-0.5-3.9l-3.9-0.4L376.7,128.2z"/>
		<path d="M382.6,125.2c-0.3-0.3-0.7-0.7-1-1l0.7,4.9l4.9,0.8c-0.7-0.8-1.5-1.6-2.3-2.3
			C384.2,126.7,383.4,125.9,382.6,125.2z"/>
		<path d="M382.7,130.8l0.6,3.9l3.6,0.7l-0.3-4L382.7,130.8z"/>
		<path d="M387.1,137.4l-3.5-0.7l0.5,3.4l3.3,0.8L387.1,137.4z"/>
		<path d="M381.2,134.2l-0.5-3.5l-3.5-0.5l0.7,3.3L381.2,134.2z"/>
		<path d="M378.3,135.7l0.7,3l3.4,0.9l-0.5-3.2L378.3,135.7z"/>
		<path d="M379.4,140.5l0.7,3.3l3.2,1.1l-0.5-3.4L379.4,140.5z"/>
		<path d="M375.8,144.2l0.7,2.8l2.7,1.1l-0.6-2.9L375.8,144.2z"/>
		<path d="M378.2,143.2l-0.7-3.2l-3.1-0.8l0.8,3.1L378.2,143.2z"/>
		<path d="M388.6,148.1l-3.3-1.1l0.5,3.3l3.1,1.2L388.6,148.1z"/>
		<path d="M385,145.2l3.4,1.1L388,143l-3.5-0.9L385,145.2z"/>
		<path d="M383.5,146.4l-3.1-1l0.7,3.2l2.9,1L383.5,146.4z"/>
		<path d="M391.6,134.4c-0.7-0.8-1.5-1.6-2.3-2.5c-0.3-0.3-0.7-0.7-0.9-1l0.5,4.9l4.9,1
			C393.1,136,392.4,135.2,391.6,134.4z"/>
		<path d="M395.8,139c-0.3-0.3-0.6-0.7-0.9-1.1l0.2,4.9l4.8,1.2c-0.7-0.8-1.3-1.7-2-2.5
			C397.2,140.7,396.5,139.8,395.8,139z"/>
		<path d="M393.1,138.4l-3.9-0.8l0.4,3.9l3.6,0.9L393.1,138.4z"/>
		<path d="M393.4,147.9l-0.1-3.5l-3.5-0.9l0.4,3.4L393.4,147.9z"/>
		<path d="M401.9,146.4c-0.3-0.4-0.6-0.8-0.8-1.1l0,4.9l4.7,1.5c-0.6-0.9-1.2-1.7-1.9-2.6
			C403.2,148.2,402.5,147.3,401.9,146.4z"/>
		<path d="M399.1,145.7l-3.8-1.1l0.2,3.9l3.6,1.1L399.1,145.7z"/>
		<path d="M399,155.2l0-3.6l-3.4-1l0.2,3.4L399,155.2z"/>
		<path d="M401.1,152l0,3.7l3.6-2.5L401.1,152z"/>
		<path d="M390.4,149l0.4,3.1l3.3,1.3l-0.2-3.3L390.4,149z"/>
		<path d="M391,153.9l0.4,3.3l3.1,1.4l-0.2-3.5L391,153.9z"/>
		<path d="M389.5,156.5l-0.4-3.2l-3-1.2l0.5,3.2L389.5,156.5z"/>
		<path d="M396.2,159.2L396.2,159.2l2.8-2l-3-1.1L396.2,159.2z"/>
		<path d="M394.5,160.4v-0.2l-2.9-1.3l0.4,3.2l0.1,0L394.5,160.4z"/>
		<path d="M390,161.4l-0.3-3l-2.7-1.1l0.5,2.8L390,161.4z"/>
		<path d="M384.3,151.6l-2.8-1l0.6,2.8l2.7,1.2L384.3,151.6z"/>
		<path d="M388.2,357.4l-2.6,1.2l-0.6,2.8l2.8-1.1L388.2,357.4z"/>
		<path d="M387.8,362.2l-3,1.2l-0.6,3l3.1-1L387.8,362.2z"/>
		<path d="M394.3,359.6L394.3,359.6l-0.4,3.6l3.1-1.1l0-0.5L394.3,359.6z"/>
		<path d="M390,356.5l-0.4,3.1l3-1.2L390,356.5L390,356.5z"/>
		<path d="M392.5,360.3l-3.1,1.2l-0.5,3.3l3.3-1.1L392.5,360.3z"/>
		<path d="M399.2,363.2l-0.3,0.1l-0.1,3.7l3.9-1v-0.4L399.2,363.2z"/>
		<path d="M400.4,371.5c0.7-0.9,1.4-1.7,2.1-2.7c0.3-0.4,0.5-0.7,0.8-1.1l-4.8,1.2l-0.2,5
			C399.1,373.2,399.8,372.4,400.4,371.5z"/>
		<path d="M391.3,369.3l0.3-3.6l-2.9,0.9l-0.5,3.5L391.3,369.3z"/>
		<path d="M393.7,365l-0.4,3.4l3.5-0.9l0.1-3.6L393.7,365z"/>
		<path d="M392.2,381.2c0.7-0.8,1.5-1.6,2.2-2.4c0.7-0.8,1.5-1.7,2.2-2.5c0.3-0.3,0.6-0.7,0.9-1l-4.8,1L392.2,381.2z
			"/>
		<path d="M390.5,380.7l0.4-3.9l-3.8,0.8l-0.5,3.7L390.5,380.7z"/>
		<path d="M396.7,373.5l0.2-3.9l-3.8,1l-0.4,3.7L396.7,373.5z"/>
		<path d="M390.8,374.7l0.3-3.6l-3.3,0.9l-0.5,3.3L390.8,374.7z"/>
		<path d="M386.4,370.7l0.5-3.5l-3.2,1.1l-0.7,3.3L386.4,370.7z"/>
		<path d="M380.2,365.1l-0.8,2.8l2.9-0.9l0.5-2.9L380.2,365.1z"/>
		<path d="M378.3,372.9l3.2-0.9l0.7-3.1l-3.1,1L378.3,372.9z"/>
		<path d="M377.1,370.5l-2.7,0.9l-0.9,2.8l2.9-0.8L377.1,370.5z"/>
		<path d="M380.3,377.3l0.7-3.4l-3.2,0.9L377,378L380.3,377.3z"/>
		<path d="M379.7,379.1l-3,0.7l-0.9,3.5l3.2-0.5L379.7,379.1z"/>
		<path d="M375.4,378.3l0.8-3.1l-3.1,0.9l-0.9,2.9L375.4,378.3z"/>
		<path d="M382.8,373.4l-0.7,3.5l3.2-0.7l0.5-3.6L382.8,373.4z"/>
		<path d="M385.1,378l-3.3,0.7l-0.7,3.3l3.5-0.5L385.1,378z"/>
		<path d="M383.9,387.5l0.7-3.9l-3.9,0.6l-0.8,3.6L383.9,387.5z"/>
		<path d="M383.4,390.3c0.4-0.3,0.7-0.7,1-0.9l-4.9,0.5l-1,4.9c0.8-0.7,1.6-1.4,2.4-2.1
			C381.8,391.8,382.6,391,383.4,390.3z"/>
		<path d="M386.3,383.2l-0.8,4.9c0.8-0.8,1.5-1.5,2.3-2.3c0.8-0.8,1.6-1.6,2.4-2.4c0.3-0.3,0.7-0.7,1-1L386.3,383.2z
			"/>
		<path d="M378.6,384.5l-3.3,0.5l-0.9,3.3l3.6-0.3L378.6,384.5z"/>
		<path d="M376.4,396.7c0.3-0.3,0.7-0.6,1.1-0.9l-4.9,0.2l-1.2,4.8c0.8-0.7,1.7-1.3,2.5-2
			C374.6,398.2,375.5,397.4,376.4,396.7z"/>
		<path d="M377,394l0.9-3.9l-3.9,0.4l-0.9,3.6L377,394z"/>
		<path d="M344,397.7l-2.8,0.1l-1.6,2.4h3L344,397.7z"/>
		<path d="M367.3,380.1l2.9-0.7l0.8-2.8l-2.7,0.8L367.3,380.1z"/>
		<path d="M369.9,381.4l-3.2,0.7l-1,2.9l3.2-0.5L369.9,381.4z"/>
		<path d="M355.2,388.3l-1.3,2.6l3-0.3l1.2-2.7L355.2,388.3z"/>
		<path d="M349.9,395.6l1.3-2.7l-2.8,0.3l-1.5,2.5L349.9,395.6z"/>
		<path d="M351,397.3l-1.5,3h3.5l1.4-3.2L351,397.3z"/>
		<path d="M347.8,400.3l1.5-2.9l-3.2,0.2l-1.5,2.7L347.8,400.3z"/>
		<path d="M358.1,392.2l-1.4,3.1l3.5-0.2l1.2-3.2L358.1,392.2z"/>
		<path d="M359.2,396.8l-3.1,0.2l-1.5,3.2l3.3,0L359.2,396.8z"/>
		<path d="M356.4,392.4l-3.2,0.4l-1.3,2.8l3.3-0.2L356.4,392.4z"/>
		<path d="M370.5,384.1l3.5-0.5l0.9-3.4l-3.3,0.7L370.5,384.1z"/>
		<path d="M371.9,390.7l-3.4,0.4l-1.1,3.2l3.6-0.1L371.9,390.7z"/>
		<path d="M372.3,389l0.9-3.5l-3,0.5l-1.1,3.4L372.3,389z"/>
		<path d="M367.2,389.5l1.1-3.3l-3.3,0.5l-1.2,3.1L367.2,389.5z"/>
		<path d="M363.8,385.2l1-2.8l-2.8,0.6l-1.2,2.7L363.8,385.2z"/>
		<path d="M362.1,390l1.1-3l-3.2,0.5l-1.2,2.8L362.1,390z"/>
		<path d="M361.3,396.7l-1.2,3.2l3.6,0.1l1.1-3.4L361.3,396.7z"/>
		<path d="M362,395l3.2-0.2l1.1-3.5l-3.1,0.3L362,395z"/>
		<path d="M369.6,400l1.1-3.8l-3.9,0.2l-1.1,3.5L369.6,400z"/>
		<path d="M368.9,402.7c0.4-0.3,0.7-0.5,1.1-0.8l-4.9,0l-1.5,4.8c0.9-0.6,1.7-1.2,2.6-1.9
			C367.1,404.1,368,403.4,368.9,402.7z"/>
		<path d="M363.4,402l-3.9,0l-1.3,3.5l4,0.3L363.4,402z"/>
		<path d="M361.2,408.4c0.4-0.3,0.8-0.5,1.2-0.8l-4.9-0.3l-1.7,4.7c0.9-0.5,1.8-1.1,2.7-1.7
			C359.4,409.6,360.3,409,361.2,408.4z"/>
		<path d="M356.2,405.3l1.2-3.3H354l-1.4,3.1L356.2,405.3z"/>
		<path d="M351.8,402h-3.1l-1.6,3.2l3.3,0.1L351.8,402z"/>
		<path d="M345.3,405.1l1.6-3.1h-3.3l-1.7,2.9L345.3,405.1z"/>
		<path d="M349.7,407l-3.4-0.2l-1.5,3l3.5,0.4L349.7,407z"/>
		<path d="M346.1,415.9l1.6-3.6l-3.9-0.4l-1.7,3.3L346.1,415.9z"/>
		<path d="M347.5,416.9c0.9-0.5,1.9-1.1,2.8-1.6c1-0.6,1.9-1.1,2.9-1.7c0.4-0.3,0.8-0.5,1.2-0.7l-4.9-0.5
			L347.5,416.9z"/>
		<path d="M351.8,407.1l-1.5,3.4l3.9,0.5l1.5-3.7L351.8,407.1z"/>
		<path d="M344.9,418.4c0.4-0.2,0.8-0.4,1.2-0.6l-4.8-0.8l-2.3,4.5c1-0.5,1.9-1,2.9-1.5
			C342.9,419.5,343.9,419,344.9,418.4z"/>
		<path d="M344.2,406.8l-3.1-0.1l-1.7,3.1l3.2,0.3L344.2,406.8z"/>
		<path d="M340.2,404.8l1.6-2.8h-3.3l-1.6,2.6L340.2,404.8z"/>
		<path d="M336.5,402.1h-2.8l-1.7,2.4l3,0.1L336.5,402.1z"/>
		<path d="M335.9,406.4l-1.8,2.8l3.5,0.4l1.7-3L335.9,406.4z"/>
		<path d="M334.1,406.3l-3.2-0.2l-1.7,2.5l3.3,0.3L334.1,406.3z"/>
		<path d="M333.2,410.8l-2,3l3.3,0.5l1.7-3.1L333.2,410.8z"/>
		<path d="M333.6,415.9l-3.3-0.5l-1.9,2.8l3.5,0.8L333.6,415.9z"/>
		<path d="M340.2,414.8l1.6-3.2l-3.4-0.4l-1.7,2.9L340.2,414.8z"/>
		<path d="M339.5,416.8l-3.9-0.6l-1.9,3.2l3.9,0.9L339.5,416.8z"/>
		<path d="M326.1,405.9l-1.8,2.3l3,0.3l1.7-2.4L326.1,405.9z"/>
		<path d="M319.3,411.9l1.8-2.4l-2.8-0.3l-2,2.2L319.3,411.9z"/>
		<path d="M316.3,416l2-2.5l-3.2-0.5l-2,2.4L316.3,416z"/>
		<path d="M319.9,413.8l-2.1,2.6l3.4,0.7l2-2.8L319.9,413.8z"/>
		<path d="M324.4,412.7l1.9-2.6l-3.2-0.3l-1.9,2.4L324.4,412.7z"/>
		<path d="M323,417.5l3.2,0.6l1.9-3.1l-3.1-0.5L323,417.5z"/>
		<path d="M326,413l3.5,0.5l1.9-2.9l-3.3-0.3L326,413z"/>
		<path d="M323.4,422.7l1.9-3l-3.3-0.7l-2,2.7L323.4,422.7z"/>
		<path d="M327.7,426.7c0.4-0.2,0.8-0.4,1.3-0.5l-4.7-1.3l-2.7,4.2c1-0.4,2-0.8,3-1.1
			C325.6,427.6,326.6,427.2,327.7,426.7z"/>
		<path d="M325.3,423.2l3.8,1.1l2-3.4l-3.8-0.8L325.3,423.2z"/>
		<path d="M317.8,421.5l2.1-2.9l-3-0.6l-2.2,2.8L317.8,421.5z"/>
		<path d="M322.5,424.6l-3.8-1l-2.1,3l3.7,1.3L322.5,424.6z"/>
		<path d="M318.8,430.2c0.4-0.2,0.8-0.3,1.3-0.5l-4.7-1.6l-2.9,4.1c1-0.3,2-0.7,3.1-1S317.7,430.6,318.8,430.2z"/>
		<path d="M333.4,424.2c1-0.5,2-0.9,3.1-1.4c0.4-0.2,0.8-0.4,1.2-0.6l-4.8-1.1l-2.5,4.3
			C331.4,425.1,332.4,424.6,333.4,424.2z"/>
		<path d="M306.8,415.9l-2.1,2.2l3.2,0.8l2.1-2.4L306.8,415.9z"/>
		<path d="M302.8,417.6l2-2.1l-2.8-0.6l-2.2,2L302.8,417.6z"/>
		<path d="M308.2,414.3l2.9,0.6l1.9-2.2l-2.8-0.5L308.2,414.3z"/>
		<path d="M315,417.5l-3.3-0.7l-2.3,2.5l3.3,0.9L315,417.5z"/>
		<path d="M296.6,417.7l-2.8-0.7l-2.3,1.9l2.9,0.9L296.6,417.7z"/>
		<path d="M297.3,425.8l3.1,1.1l2.4-2.7l-2.9-0.9L297.3,425.8z"/>
		<path d="M295.6,425.1l2.4-2.5l-3.2-1l-2.5,2.2L295.6,425.1z"/>
		<path d="M296.3,420.3l3.1,1l2.3-2.3l-3.1-0.8L296.3,420.3z"/>
		<path d="M285.9,421.5l2.3-1.9l-2.7-0.9l-2.4,1.7L285.9,421.5z"/>
		<path d="M289.4,424.6l-3.1-1.2l-2.6,2.1l3.2,1.4L289.4,424.6z"/>
		<path d="M287.7,422.2l3.1,1.1l2.4-2.1l-3.1-1L287.7,422.2z"/>
		<path d="M288.5,427.6l3,1.3l2.5-2.6l-2.9-1.1L288.5,427.6z"/>
		<path d="M290.2,430.3l-3.1-1.4l-2.5,2.3l3.2,1.6L290.2,430.3z"/>
		<path d="M292.1,431.1l-2.6,2.6l3.5,1.9l2.7-2.9L292.1,431.1z"/>
		<path d="M293.6,429.5l3.2,1.5l2.3-2.7l-3.2-1.2L293.6,429.5z"/>
		<path d="M311.3,421.6l-2.9-0.8l-2.4,2.7l3.1,1L311.3,421.6z"/>
		<path d="M313.5,422.1l-2.1,2.7l3.3,1.2l2-2.9L313.5,422.1z"/>
		<path d="M300.9,421.9l3.3,1.1l2.3-2.6l-3.2-0.9L300.9,421.9z"/>
		<path d="M302.5,427.4l3.3,1.3l2.2-2.8l-3.2-1.1L302.5,427.4z"/>
		<path d="M304.7,430.4l-3.6-1.4l-2.5,2.8l3.6,1.7L304.7,430.4z"/>
		<path d="M303.3,434.9c1.1-0.3,2.1-0.5,3.1-0.8c1.1-0.3,2.2-0.6,3.2-0.9c0.4-0.1,0.9-0.3,1.3-0.4l-4.6-1.8
			L303.3,434.9z"/>
		<path d="M311.3,431l2.4-3.2l-3.7-1.2l-2.3,2.9L311.3,431z"/>
		<path d="M301.8,435.4l-4.5-2L294,437c1.1-0.2,2.1-0.4,3.2-0.6c1.1-0.3,2.2-0.5,3.3-0.7
			C300.9,435.6,301.3,435.5,301.8,435.4z"/>
		<path d="M264.6,426.5l2.7-1.7l-2.9-1.5l-2.7,1.6L264.6,426.5z"/>
		<path d="M268.5,420.7l-2.5,1.5l2.7,1.3l2.5-1.7L268.5,420.7z"/>
		<path d="M260,421.1l-2.6,1.3l2.6,1.5l2.5-1.5L260,421.1z"/>
		<path d="M257.1,427.6l2.9,1.9l2.9-1.9l-2.9-1.7L257.1,427.6z"/>
		<path d="M257.2,433.3l2.8,2.1l2.8-2.1l-2.8-1.9L257.2,433.3z"/>
		<path d="M267.2,430l-2.7-1.5l-3,1.9l2.8,1.7L267.2,430z"/>
		<path d="M266.3,433.1l2.9,2l2.7-2.3l-2.9-1.7L266.3,433.1z"/>
		<path d="M266,427.3l3,1.7l2.8-2l-3-1.5L266,427.3z"/>
		<path d="M279.1,423.5l3,1.3l2.5-2l-3.1-1.1L279.1,423.5z"/>
		<path d="M277.5,424.7l-2.7,2l3.1,1.6l2.7-2.2L277.5,424.7z"/>
		<path d="M277,419.9l-2.5,1.6l2.8,1.2l2.4-1.8L277,419.9z"/>
		<path d="M275.9,424l-3-1.3l-2.5,1.7l2.9,1.5L275.9,424z"/>
		<path d="M277.2,435.8l-3.4-2l-2.8,2.4l3.3,2.2L277.2,435.8z"/>
		<path d="M278.1,430.2l-2.7,2.1l3.1,1.8l2.6-2.4L278.1,430.2z"/>
		<path d="M273.4,431.6l2.8-2.3l-2.8-1.4l-2.9,2.1L273.4,431.6z"/>
		<path d="M283,432.7l-2.8,2.5l3.4,2l2.8-2.8L283,432.7z"/>
		<path d="M279.5,429l2.9,1.5l2.6-2.5l-2.8-1.2L279.5,429z"/>
		<path d="M283,439l-4.3-2.5l-3.7,3.3c1.1-0.1,2.1-0.2,3.2-0.3c1.1-0.1,2.2-0.2,3.3-0.4
			C282.1,439.2,282.6,439.1,283,439z"/>
		<path d="M272.1,440.2c0.5,0,0.9-0.1,1.4-0.1l-4.1-2.7l-3.9,3.2c1.1,0,2.1-0.1,3.2-0.1
			C269.9,440.4,271,440.3,272.1,440.2z"/>
		<path d="M264.8,439l3.1-2.5l-3.3-2.1l-3,2.2L264.8,439z"/>
		<path d="M259.2,440.8c1.1,0,2.3,0,3.4,0c0.4,0,0.9,0,1.4,0l-4-2.9l-4,2.9C257.1,440.8,258.2,440.8,259.2,440.8z"/>
		<path d="M291.1,437.7c0.4-0.1,0.9-0.1,1.3-0.2l-4.4-2.3l-3.5,3.6c1.1-0.1,2.1-0.3,3.2-0.5
			C288.9,438.1,290,437.9,291.1,437.7z"/>
		<path d="M153.3,107.8c-0.4,0.3-0.8,0.5-1.1,0.8l4.9,0.3l1.7-4.7c-0.9,0.5-1.8,1.1-2.7,1.7
			C155.1,106.6,154.2,107.2,153.3,107.8z"/>
		<path d="M150.9,109.6c-0.9,0.6-1.8,1.2-2.6,1.9c-0.9,0.7-1.8,1.3-2.7,2c-0.4,0.3-0.7,0.5-1.1,0.8l4.9,0
			L150.9,109.6z"/>
		<path d="M164.2,100.9c-1,0.6-1.9,1.1-2.9,1.7c-0.4,0.3-0.8,0.5-1.2,0.7l4.9,0.5l2-4.5
			C166.1,99.8,165.1,100.4,164.2,100.9z"/>
		<path d="M160.2,105.2l-1.5,3.7l3.9,0.2l1.5-3.4L160.2,105.2z"/>
		<path d="M166.2,105.9l-1.4,3.3l3.4,0.2l1.5-3L166.2,105.9z"/>
		<path d="M167.3,111l-3.3-0.1l-1.4,3.3h3.1L167.3,111z"/>
		<path d="M161.9,111.2l-3.5-0.3l-1.2,3.3h3.4L161.9,111.2z"/>
		<path d="M156.4,110.8l-4-0.3l-1.3,3.7h3.9L156.4,110.8z"/>
		<path d="M189.2,93l-3.8-1.1l-2,3.4l3.8,0.8L189.2,93z"/>
		<path d="M189.9,88.3c-1.1,0.4-2.1,0.8-3.1,1.2c-0.4,0.2-0.8,0.4-1.3,0.5l4.7,1.3l2.7-4.2
			C191.9,87.5,190.9,87.9,189.9,88.3z"/>
		<path d="M192,91.7l3.8,1l2.1-3l-3.7-1.3L192,91.7z"/>
		<path d="M195.7,86c-0.4,0.1-0.9,0.3-1.3,0.4l4.7,1.6l2.9-4c-1.1,0.3-2,0.6-3.1,1C197.8,85.3,196.8,85.7,195.7,86z"
		/>
		<path d="M178.1,93.4c-0.4,0.2-0.8,0.4-1.3,0.6l4.8,1.1l2.4-4.3c-1,0.4-2,0.8-2.9,1.3
			C180.1,92.5,179,92.9,178.1,93.4z"/>
		<path d="M182.6,97.2l-1.7,3.1l3.3,0.5L186,98L182.6,97.2z"/>
		<path d="M180.6,96.8l-3.9-0.9l-1.8,3.5l3.9,0.6L180.6,96.8z"/>
		<path d="M172.3,101l-3.9-0.7l-1.6,3.6l3.9,0.4L172.3,101z"/>
		<path d="M168.3,98.4l4.9,0.8l2.2-4.5c-0.9,0.5-1.9,0.9-2.9,1.5c-1,0.5-2,1-3,1.5C169.1,98,168.7,98.2,168.3,98.4z"
		/>
		<path d="M175.2,106.5l-3.3-0.3l-1.6,3.2l3.1,0.1L175.2,106.5z"/>
		<path d="M172.6,111.3l-3.5-0.2l-1.6,3.1h3.3L172.6,111.3z"/>
		<path d="M182.5,111.8l-3-0.2l-1.6,2.5l2.8,0L182.5,111.8z"/>
		<path d="M180.4,107.1l-3.5-0.4l-1.7,3l3.3,0.2L180.4,107.1z"/>
		<path d="M182.1,107.2l-1.7,2.7l3.3,0.2l1.7-2.5L182.1,107.2z"/>
		<path d="M178.2,105.1l3.1,0.3l1.9-3L180,102L178.2,105.1z"/>
		<path d="M176.1,104.9l1.7-2.9l-3.5-0.6l-1.6,3.2L176.1,104.9z"/>
		<path d="M177.6,111.6l-3.3-0.1l-1.6,2.8h3.2L177.6,111.6z"/>
		<path d="M196.7,94.8l-2.1,2.9l3,0.6l2.2-2.8L196.7,94.8z"/>
		<path d="M193.2,99.2l-2,2.8l3.3,0.5l2.1-2.6L193.2,99.2z"/>
		<path d="M192.5,97.3l2-2.8l-3.4-1l-1.9,3L192.5,97.3z"/>
		<path d="M186.3,101.2l3,0.5l2.1-2.9l-3.2-0.7L186.3,101.2z"/>
		<path d="M188.4,103.2l-3.4-0.5l-1.9,2.9l3.3,0.3L188.4,103.2z"/>
		<path d="M190,103.6l-1.9,2.6l3.2,0.3l1.9-2.4L190,103.6z"/>
		<path d="M187.3,107.7l-1.7,2.4l2.8,0.1l1.9-2.3L187.3,107.7z"/>
		<path d="M193.4,106.7l2.8,0.3l2-2.2l-3-0.4L193.4,106.7z"/>
		<path d="M251.9,75.4c-0.5,0-0.9,0-1.4,0l4,2.9l4-2.9c-1.1,0-2.1,0-3.2,0C254.1,75.4,253,75.4,251.9,75.4z"/>
		<path d="M248.9,75.6c-1.1,0-2.1,0.1-3.2,0.1c-1.1,0.1-2.3,0.1-3.4,0.2c-0.4,0-0.9,0.1-1.3,0.1l4.1,2.7L248.9,75.6z
			"/>
		<path d="M226.7,78c-1.1,0.2-2.2,0.4-3.3,0.5c-0.4,0.1-0.9,0.1-1.3,0.3l4.4,2.3l3.5-3.5
			C228.8,77.7,227.8,77.8,226.7,78z"/>
		<path d="M222.4,85.1l2.6-2.7l-3.5-1.9l-2.7,2.9L222.4,85.1z"/>
		<path d="M215.8,84.4l-3.6-1.7l-2.5,3l3.7,1.4L215.8,84.4z"/>
		<path d="M212.6,80.9l4.5,2l3.3-3.7c-1.1,0.2-2.1,0.4-3.2,0.7c-1.1,0.3-2.2,0.5-3.3,0.7
			C213.5,80.6,213.1,80.8,212.6,80.9z"/>
		<path d="M215.3,87.9l3.2,1.2l2.4-2.4l-3.2-1.5L215.3,87.9z"/>
		<path d="M218.9,91.1l-2.5,2.4l3.2,1l2.5-2.2L218.9,91.1z"/>
		<path d="M214.6,93l2.5-2.5l-3.1-1.2l-2.4,2.7L214.6,93z"/>
		<path d="M226.7,94.1l-3.1-1.2l-2.4,2.2l3.1,1L226.7,94.1z"/>
		<path d="M226,88.6l-3-1.3l-2.5,2.6l2.9,1.1L226,88.6z"/>
		<path d="M226.7,83.4l-2.5,2.6l3.1,1.4l2.5-2.3L226.7,83.4z"/>
		<path d="M208,85.3l3.1-3.9c-1,0.3-2.1,0.5-3.1,0.8c-1.1,0.3-2.2,0.6-3.3,0.9c-0.4,0.1-0.9,0.3-1.3,0.4L208,85.3z"
		/>
		<path d="M199.8,90.3l-2,2.9l3.3,0.9l2.1-2.6L199.8,90.3z"/>
		<path d="M200.8,88.5l3.7,1.2l2.3-2.9l-3.6-1.5L200.8,88.5z"/>
		<path d="M211.9,88.9l-3.3-1.3l-2.2,2.8l3.2,1.1L211.9,88.9z"/>
		<path d="M208.4,92.8l-3.1-1l-2.2,2.8l3,0.8L208.4,92.8z"/>
		<path d="M207.8,95.9l3.3,0.9l2.4-2.4l-3.3-1.1L207.8,95.9z"/>
		<path d="M211.6,98.7l-2.1,2.1l2.8,0.6l2.2-1.9L211.6,98.7z"/>
		<path d="M209.7,98.2l-3.2-0.8l-2.1,2.4l3.2,0.7L209.7,98.2z"/>
		<path d="M199.5,103.2l2-2.3l-3.2-0.7l-2,2.5L199.5,103.2z"/>
		<path d="M199.5,98.7l3.3,0.7l2.3-2.5l-3.4-0.9L199.5,98.7z"/>
		<path d="M201.4,103.5l2.8,0.4l2.1-2.1l-2.9-0.6L201.4,103.5z"/>
		<path d="M222.9,97.4l-2.9-0.9l-2.2,2l2.8,0.7L222.9,97.4z"/>
		<path d="M215.9,98l2.2-2.1l-3.1-1l-2.3,2.3L215.9,98z"/>
		<path d="M252.9,79.6l-3.2-2.4l-3.1,2.4l3.3,2.1L252.9,79.6z"/>
		<path d="M251.6,82.9l2.8,1.9l2.8-1.9l-2.8-2.1L251.6,82.9z"/>
		<path d="M248.1,83.2l-2.9-2l-2.7,2.3l2.9,1.7L248.1,83.2z"/>
		<path d="M248.5,88.9l-3-1.7l-2.8,2l3,1.5L248.5,88.9z"/>
		<path d="M248.5,94.1l-2.7-1.4l-2.4,1.7l2.6,1.2L248.5,94.1z"/>
		<path d="M250.1,92.9l2.6-1.6l-2.8-1.6l-2.7,1.8L250.1,92.9z"/>
		<path d="M254.5,92.3l-2.5,1.6l2.5,1.3l2.6-1.3L254.5,92.3z"/>
		<path d="M249.9,87.7l3-2l-2.8-1.7l-2.9,2.2L249.9,87.7z"/>
		<path d="M254.5,86.8l-2.9,1.9l2.9,1.7l2.9-1.7L254.5,86.8z"/>
		<path d="M239,83.9l-3-1.8l-2.6,2.4l3,1.6L239,83.9z"/>
		<path d="M240.2,77.8l-3,2.6l3.4,2l2.9-2.4L240.2,77.8z"/>
		<path d="M232.8,77c-0.5,0-0.9,0.1-1.4,0.1l4.3,2.5l3.7-3.3c-1.1,0.1-2.1,0.2-3.2,0.3C235,76.8,233.9,76.9,232.8,77
			z"/>
		<path d="M231.5,83.5l2.7-2.5l-3.4-2l-2.8,2.8L231.5,83.5z"/>
		<path d="M232.3,91.4l-2.5,2l3,1.2l2.5-1.9L232.3,91.4z"/>
		<path d="M230.9,90.7l-3.2-1.4l-2.6,2.3l3.1,1.2L230.9,90.7z"/>
		<path d="M232,85.7l-2.7,2.5l2.8,1.2l2.8-2.2L232,85.7z"/>
		<path d="M238.3,87l2.7,1.4l2.9-2.1l-2.9-1.6L238.3,87z"/>
		<path d="M241.1,90.4l-2.6,1.9l3,1.3l2.5-1.7L241.1,90.4z"/>
		<path d="M236.9,91.5l2.7-2l-3.1-1.6l-2.7,2.2L236.9,91.5z"/>
		<path d="M234.8,95.3l2.7,1l2.4-1.6l-2.7-1.2L234.8,95.3z"/>
		<path d="M229,97.6l2.4-1.7l-2.8-1.1l-2.3,1.9L229,97.6z"/>
		<path d="M138.1,119.6c-0.4,0.3-0.7,0.6-1.1,0.9l4.9-0.2l1.3-4.8c-0.9,0.7-1.7,1.3-2.5,2
			C139.8,118.1,139,118.8,138.1,119.6z"/>
		<path d="M131,125.9c-0.4,0.3-0.7,0.6-1,0.9l4.9-0.5l1-4.9c-0.8,0.7-1.6,1.4-2.4,2.1
			C132.7,124.4,131.8,125.2,131,125.9z"/>
		<path d="M137.5,122.3l-0.9,3.8l3.9-0.4l0.9-3.6L137.5,122.3z"/>
		<path d="M134.5,128.4l-4,0.3l-0.7,3.9l3.9-0.6L134.5,128.4z"/>
		<path d="M122.3,134.9c-0.7,0.8-1.5,1.6-2.2,2.4c-0.8,0.8-1.5,1.6-2.2,2.5c-0.3,0.3-0.6,0.7-0.9,1.1l4.8-1
			L122.3,134.9z"/>
		<path d="M116.1,142.2c-0.7,0.8-1.4,1.7-2,2.5c-0.7,0.9-1.4,1.7-2.1,2.6c-0.3,0.4-0.6,0.7-0.9,1.1l4.8-1.2
			L116.1,142.2z"/>
		<path d="M123.6,141.5l-0.3,3.5l3.3-0.9l0.5-3.3L123.6,141.5z"/>
		<path d="M121.6,141.9l-3.9,0.8l-0.3,3.9l3.8-1L121.6,141.9z"/>
		<path d="M132.7,137.6l0.7-3.3l-3.5,0.5l-0.5,3.5L132.7,137.6z"/>
		<path d="M137.5,138.2l-3.4,0.7l-0.7,3.4l3.2-0.9L137.5,138.2z"/>
		<path d="M135.5,133.5l-0.7,3.6l3-0.7l0.9-3.4L135.5,133.5z"/>
		<path d="M126.6,130.4c-0.8,0.8-1.6,1.6-2.4,2.4c-0.3,0.3-0.6,0.7-0.9,1l4.9-0.7l0.8-4.9
			C128.2,128.8,127.4,129.6,126.6,130.4z"/>
		<path d="M127.9,135l-3.9,0.5l-0.5,3.9l3.9-0.8L127.9,135z"/>
		<path d="M129.2,140.1l-0.5,3.6l2.9-0.8l0.8-3.5L129.2,140.1z"/>
		<path d="M133,144.2l-0.7,3.1l3.1-1l0.7-3L133,144.2z"/>
		<path d="M138,142.9l-0.7,2.9l2.7-0.9l0.9-2.8L138,142.9z"/>
		<path d="M131.4,144.6l-3.4,0.9l-0.5,3.5l3.2-1.1L131.4,144.6z"/>
		<path d="M136.5,128.2l-0.7,3.5l3.3-0.5l0.9-3.3L136.5,128.2z"/>
		<path d="M126.2,146l-3.2,0.9l-0.3,3.6l2.9-1L126.2,146z"/>
		<path d="M106.3,155c-0.3,0.4-0.5,0.8-0.8,1.1l4.7-1.5l0-4.9c-0.6,0.8-1.3,1.7-1.9,2.6
			C107.6,153.2,106.9,154.1,106.3,155z"/>
		<path d="M101.2,163.1c-0.3,0.4-0.5,0.8-0.7,1.2l4.6-1.7l-0.3-5c-0.6,0.9-1.2,1.8-1.8,2.7
			C102.3,161.2,101.7,162.2,101.2,163.1z"/>
		<path d="M106.4,157.8l0.2,4l3.6-1.4v-3.7L106.4,157.8z"/>
		<path d="M105.2,164.5l-3.7,1.4l0.4,3.9l3.6-1.6L105.2,164.5z"/>
		<path d="M93.6,177c-0.5,1-1,2-1.5,3c-0.2,0.4-0.4,0.8-0.6,1.2l4.4-2.2l-0.8-4.9C94.5,175.1,94,176,93.6,177z"/>
		<path d="M105.5,170.5l-3.2,1.4l0.4,3.5l3.1-1.5L105.5,170.5z"/>
		<path d="M107.4,169.3l0.3,3.6l2.7-1.4v-3.6L107.4,169.3z"/>
		<path d="M95.7,172.6l4.5-2l-0.6-5c-0.6,0.9-1.1,1.9-1.6,2.8c-0.6,0.9-1.1,1.9-1.7,2.9
			C96.1,171.8,95.9,172.2,95.7,172.6z"/>
		<path d="M100.4,172.6l-3.7,1.6l0.6,3.9l3.5-1.8L100.4,172.6z"/>
		<path d="M98.6,183.6l2.9-1.7l-0.4-3.4l-3.2,1.6L98.6,183.6z"/>
		<path d="M106,179.3l-0.2-3.6l-2.9,1.5l0.4,3.6L106,179.3z"/>
		<path d="M107.7,180.2l0.2,3.2l2.7-1.7l-0.1-3.1L107.7,180.2z"/>
		<path d="M106.3,181.1l-3,1.7l0.4,3.5l2.8-1.8L106.3,181.1z"/>
		<path d="M107.4,174.9l0.2,3.5l2.9-1.7v-3.4L107.4,174.9z"/>
		<path d="M107,163.9l0.2,3.5l3.1-1.4l0-3.4L107,163.9z"/>
		<path d="M96.2,181l-3.6,1.7l0.8,3.9l3.4-1.9L96.2,181z"/>
		<path d="M132.1,149.2l-0.6,2.9l2.7-1.1l0.8-2.8L132.1,149.2z"/>
		<path d="M129.7,152.8l0.6-3l-3.1,1.1l-0.5,3.2L129.7,152.8z"/>
		<path d="M125.1,154.7l0.5-3.3l-3.3,1.1l-0.4,3.5L125.1,154.7z"/>
		<path d="M129.4,154.8l-2.8,1.1l-0.4,2.9l2.6-1.2L129.4,154.8z"/>
		<path d="M124.4,159.7l0.4-3l-3.1,1.2l-0.3,3.2L124.4,159.7z"/>
		<path d="M117.7,148.7l-0.1,3.5l3.2-1l0.3-3.4L117.7,148.7z"/>
		<path d="M120.2,156.6l0.4-3.6l-3.1,1.1l-0.1,3.6L120.2,156.6z"/>
		<path d="M115.7,149.2l-3.9,1l0,3.9l3.7-1.2L115.7,149.2z"/>
		<path d="M115.6,155.1l-3.4,1l0.1,3.6l3.2-1.2L115.6,155.1z"/>
		<path d="M112.3,165.1l2.8-1.3l0.2-3.5l-3.1,1.2L112.3,165.1z"/>
		<path d="M119.7,163.7l-3,1.4l-0.2,3.2l2.9-1.5L119.7,163.7z"/>
		<path d="M121.2,165.8l2.5-1.3l0.5-2.9l-2.8,1.2L121.2,165.8z"/>
		<path d="M117,159.6l-0.2,3.5l3.1-1.4l0.4-3.3L117,159.6z"/>
		<path d="M119.4,168.8l-2.7,1.4l-0.1,2.9l2.4-1.4L119.4,168.8z"/>
		<path d="M112,167.1v3.5l3-1.5l0.2-3.3L112,167.1z"/>
		<path d="M114.9,174.1l0.1-3.1l-2.9,1.5v3.2L114.9,174.1z"/>
		<path d="M114.7,179l0.1-2.9l-2.6,1.5l0,2.9L114.7,179z"/>
		<path d="M79.4,216c-0.1,0.4-0.3,0.9-0.4,1.3l3.9-3.1l-1.8-4.6c-0.3,1-0.6,2.1-0.8,3.1
			C80,213.8,79.7,214.9,79.4,216z"/>
		<path d="M77.4,225.4c-0.1,0.4-0.2,0.9-0.3,1.3l3.7-3.3l-2-4.5c-0.3,1.1-0.5,2.1-0.7,3.2
			C77.8,223.1,77.6,224.2,77.4,225.4z"/>
		<path d="M75.8,236.2l3.5-3.5l-2.3-4.4c-0.2,1.1-0.4,2.1-0.5,3.2c-0.2,1.1-0.3,2.2-0.5,3.3
			C75.9,235.3,75.8,235.7,75.8,236.2z"/>
		<path d="M75,244.3c0,0.4-0.1,0.9-0.1,1.4l3.3-3.6l-2.5-4.3c-0.1,1.1-0.3,2.1-0.4,3.2
			C75.2,242.1,75.1,243.2,75,244.3z"/>
		<path d="M79.2,243.8l-2.7,2.9l2.1,3.3l2.5-3L79.2,243.8z"/>
		<path d="M74.9,247.4c-0.1,1.1-0.1,2.1-0.2,3.2c-0.1,1.1-0.1,2.3-0.1,3.4c0,0.4,0,0.9-0.1,1.4l3.1-3.8L74.9,247.4z"
		/>
		<path d="M78.8,253.2l-2.6,3.1l2.3,3.2l2.3-3.2L78.8,253.2z"/>
		<path d="M77.3,237.3l2,3.4l2.6-2.9l-1.7-3.3L77.3,237.3z"/>
		<path d="M108.2,185.4l0.2,2.9l2.3-1.7v-2.9L108.2,185.4z"/>
		<path d="M102.8,192.4l-0.3-3.3l-2.9,1.9l0.5,3.5L102.8,192.4z"/>
		<path d="M107,191.4l-2.4,1.7l0.4,2.9l2.2-1.8L107,191.4z"/>
		<path d="M106.8,189.5l-0.2-3.1l-2.7,1.8l0.3,3.2L106.8,189.5z"/>
		<path d="M97.7,190.1l-0.5-3.3l-3.1,1.7l0.8,3.5L97.7,190.1z"/>
		<path d="M98.9,185.4l0.6,3.6l2.5-1.7l-0.4-3.6L98.9,185.4z"/>
		<path d="M95.3,193.8l0.8,3.5l2.5-1.8L98,192L95.3,193.8z"/>
		<path d="M100.4,196.3l0.5,3.2l2.5-2l-0.4-3.1L100.4,196.3z"/>
		<path d="M99,197.3l-2.8,2l0.7,3.4l2.6-2.1L99,197.3z"/>
		<path d="M104.1,202.4l-0.3-2.9l-2.4,1.9l0.5,2.9L104.1,202.4z"/>
		<path d="M89.5,185.6c-0.5,1-0.9,2-1.3,3.1c-0.2,0.4-0.4,0.9-0.5,1.3l4.3-2.4l-1.1-4.9
			C90.4,183.6,90,184.6,89.5,185.6z"/>
		<path d="M93.2,193.1l-0.8-3.6l-3.5,1.9l1,3.8L93.2,193.1z"/>
		<path d="M86,194.5c-0.4,1.1-0.8,2.1-1.2,3.2c-0.1,0.4-0.3,0.9-0.4,1.3l4.1-2.7l-1.3-4.8
			C86.7,192.5,86.3,193.6,86,194.5z"/>
		<path d="M93.7,195.3l-3,1.9l1,3.4l2.8-2L93.7,195.3z"/>
		<path d="M90,201.8l-1-3.6l-3.3,2.1l1.2,3.7L90,201.8z"/>
		<path d="M92.2,202.4l1,3.5l2.4-2l-0.8-3.5L92.2,202.4z"/>
		<path d="M90.6,203.9l-2.9,2l1.2,3.3l2.6-2.1L90.6,203.9z"/>
		<path d="M93.4,207.8l0.9,3.3l2.5-2.3l-0.7-3.3L93.4,207.8z"/>
		<path d="M92,209l-2.5,2.1l1.2,3.4l2.3-2.1L92,209z"/>
		<path d="M86.1,207.1l-3.3,2.3l1.4,3.7l3.1-2.5L86.1,207.1z"/>
		<path d="M81.4,208.1l4-2.9l-1.6-4.7c-0.3,1-0.7,2-1,3.1c-0.3,1.1-0.7,2.1-1,3.2C81.7,207.2,81.6,207.6,81.4,208.1z
			"/>
		<path d="M85.3,214.9l1.3,3.3l2.5-2.3l-1.1-3.2L85.3,214.9z"/>
		<path d="M83.7,216.1l-3.1,2.4l1.6,3.6l2.9-2.6L83.7,216.1z"/>
		<path d="M89.7,217.7l-2.4,2.2l1.3,3.3l2.1-2.2L89.7,217.7z"/>
		<path d="M91,216.5l1.1,3.3l2.4-2.4l-0.9-3.2L91,216.5z"/>
		<path d="M100.5,205.6l-0.5-3l-2.5,2.1l0.7,3.1L100.5,205.6z"/>
		<path d="M101.3,210.4l-0.5-2.9l-2.2,2l0.7,2.9L101.3,210.4z"/>
		<path d="M98.5,215.8l-2.1,2.1l0.8,2.9l1.9-2.1L98.5,215.8z"/>
		<path d="M94.8,213l0.8,3.1l2.3-2.3l-0.7-3L94.8,213z"/>
		<path d="M94.4,226.3l1,2.8l1.8-2.2l-0.8-2.8L94.4,226.3z"/>
		<path d="M95.8,235.3l-0.9-2.8l-1.9,2.3l1.1,2.8L95.8,235.3z"/>
		<path d="M92.7,221.6l1,3.1l2.2-2.4l-0.9-2.9L92.7,221.6z"/>
		<path d="M89,225.2l1.3,3.2l2.2-2.5l-1-3.2L89,225.2z"/>
		<path d="M83.2,228.6l-1.5-3.4l-3,2.6l1.8,3.5L83.2,228.6z"/>
		<path d="M85.8,221.6l-2.7,2.3l1.5,3.2l2.4-2.4L85.8,221.6z"/>
		<path d="M85.6,233.7l-1.4-3.1l-2.5,2.5l1.6,3.1L85.6,233.7z"/>
		<path d="M86.4,235.4l-2.2,2.5l1.7,3.2l1.9-2.4L86.4,235.4z"/>
		<path d="M92.1,233.2l2-2.5l-1-2.9l-2.2,2.4L92.1,233.2z"/>
		<path d="M87.6,234l1.4,3.2l2.1-2.6l-1.2-3.2L87.6,234z"/>
		<path d="M87,232.1l2.1-2.3l-1.3-3.3l-2.3,2.4L87,232.1z"/>
		<path d="M91.1,241.9l1.9-2.7l-1.2-2.8l-2,2.5L91.1,241.9z"/>
		<path d="M88.1,246.1l2-2.7l-1.3-3.1l-2.2,2.7L88.1,246.1z"/>
		<path d="M92,243.5l1.3,2.7l1.5-2.4l-1.1-2.7L92,243.5z"/>
		<path d="M83,239.7l-2.4,2.6l1.8,3.1l2.1-2.7L83,239.7z"/>
		<path d="M85.4,244.4l-2,2.5l1.9,3.1l1.8-2.5L85.4,244.4z"/>
		<path d="M82.3,248.9l-2.3,2.7l2,2.9l2-2.8L82.3,248.9z"/>
		<path d="M84.9,253.4l-1.9,2.7l2,3l1.6-2.6L84.9,253.4z"/>
		<path d="M89,247.8l1.5,2.8l1.7-2.7l-1.3-2.8L89,247.8z"/>
		<path d="M87.7,255l1.8-2.8l-1.5-3l-2,2.8L87.7,255z"/>
		<path d="M92.9,254.9l1.4-2.5l-1.2-2.7l-1.6,2.5L92.9,254.9z"/>
		<path d="M174.9,115.9h-3l-1.4,2.6l2.8-0.2L174.9,115.9z"/>
		<path d="M168.5,118.6l1.5-2.7h-3.3l-1.5,2.9L168.5,118.6z"/>
		<path d="M167.6,120.4l-3,0.1l-1.3,2.7l2.8-0.3L167.6,120.4z"/>
		<path d="M165.1,115.9h-3.5l-1.4,3.2l3.3-0.2L165.1,115.9z"/>
		<path d="M157.7,120.9l-3.5,0.2l-1.2,3.2l3.3-0.4L157.7,120.9z"/>
		<path d="M156.5,116l-1.2,3.4l3.1-0.2l1.5-3.3L156.5,116z"/>
		<path d="M160.5,125.3l-3,0.3l-1.2,2.7l2.8-0.4L160.5,125.3z"/>
		<path d="M154.4,128.6l1.2-2.8l-3.3,0.4l-1.1,3L154.4,128.6z"/>
		<path d="M162.6,120.7l-3.2,0.2l-1.3,2.9l3.2-0.3L162.6,120.7z"/>
		<path d="M150.8,116.3l-1.1,3.4l3.4-0.2l1.2-3.2L150.8,116.3z"/>
		<path d="M147.6,119.8l1.1-3.5l-4-0.1l-1,3.8L147.6,119.8z"/>
		<path d="M145.4,126.9l-3.3,0.4l-0.9,3.5l3.1-0.5L145.4,126.9z"/>
		<path d="M143.5,122.1l-0.8,3.5l3.3-0.4l1.1-3.2L143.5,122.1z"/>
		<path d="M149.2,121.4l-1.1,3.5l3.1-0.3l1.3-3.3L149.2,121.4z"/>
		<path d="M147.2,126.7l-1.1,3.3l3.3-0.5l1.2-3.1L147.2,126.7z"/>
		<path d="M147.8,134.2l1.1-2.9l-3.2,0.5l-1,3.1L147.8,134.2z"/>
		<path d="M146.1,138.8l1.1-2.7l-2.9,0.6l-0.9,2.8L146.1,138.8z"/>
		<path d="M150.7,131l-1,2.8l2.8-0.6l1.2-2.7L150.7,131z"/>
		<path d="M142.3,137.2l-3.2,0.7l-0.8,3.1l3.1-0.8L142.3,137.2z"/>
		<path d="M144,132.1l-3.5,0.5l-0.9,3.3l3.3-0.7L144,132.1z"/>
		<path d="M140.1,377.1l-0.8-3.2l-2.9-0.9l0.7,3.2L140.1,377.1z"/>
		<path d="M141.2,374.4l0.8,2.9l2.9,0.7l-0.9-2.7L141.2,374.4z"/>
		<path d="M141.5,381.9l-0.9-3.2l-3.2-0.9l0.7,3.4L141.5,381.9z"/>
		<path d="M145.5,379.9l-3-0.7l0.9,3.2l3.1,0.7L145.5,379.9z"/>
		<path d="M150.2,381.1l-2.8-0.8l0.9,2.9l2.9,0.5L150.2,381.1z"/>
		<path d="M150,388.2l3.2,0.5l-1.2-3l-3-0.6L150,388.2z"/>
		<path d="M148.1,387.9l-1.1-3.2l-3.3-0.7l0.9,3.4L148.1,387.9z"/>
		<path d="M143.3,388.8l-3.4-0.5l0.7,3.5l3.5,0.3L143.3,388.8z"/>
		<path d="M142.8,386.7l-0.8-2.9l-3.5-0.8l0.7,3.2L142.8,386.7z"/>
		<path d="M139,397.4c0.4,0.3,0.7,0.6,1.1,0.9l-1-4.8l-4.9-0.5c0.8,0.7,1.6,1.5,2.4,2.2
			C137.3,396,138.1,396.7,139,397.4z"/>
		<path d="M145.7,397.9l-1-3.8l-3.7-0.4l0.7,3.9L145.7,397.9z"/>
		<path d="M152,399.8l-3.7-0.1l1,3.9h3.9L152,399.8z"/>
		<path d="M147.8,397.6l3.6,0.1l-1.1-3.2l-3.4-0.4L147.8,397.6z"/>
		<path d="M146,392.2l3.6,0.3l-1-2.9l-3.5-0.5L146,392.2z"/>
		<path d="M152.2,394.7l1.1,3.1l3.6,0.1l-1.1-2.9L152.2,394.7z"/>
		<path d="M150.5,389.7l1.1,3.3l3.5,0.3l-1.2-3.1L150.5,389.7z"/>
		<path d="M146.4,399.5l-5-0.2c0.8,0.7,1.6,1.4,2.5,2c0.9,0.7,1.7,1.4,2.7,2.1c0.3,0.3,0.7,0.5,1.1,0.8L146.4,399.5z
			"/>
		<path d="M156.9,386.5l-2.9-0.6l1.1,2.8l2.9,0.4L156.9,386.5z"/>
		<path d="M158.9,390.9l-3.1-0.4l1.2,3.1l3.2,0.3L158.9,390.9z"/>
		<path d="M157.6,395.1l1.2,3.2l3.5,0.2l-1.4-3.1L157.6,395.1z"/>
		<path d="M157.6,400l-3.4-0.1l1,3.4l3.6-0.1L157.6,400z"/>
		<path d="M167.4,398.8l-1.5-2.9l-3.1-0.2l1.4,3L167.4,398.8z"/>
		<path d="M162,393.9l3,0.3l-1.3-2.5l-2.9-0.5L162,393.9z"/>
		<path d="M163,400.3l-3.5-0.2l1.2,3l3.6,0L163,400.3z"/>
		<path d="M172.2,398.7l-1.4-2.4l-2.9-0.3l1.3,2.7L172.2,398.7z"/>
		<path d="M168.2,400.3l-3.4-0.2l1.4,3.2l3.5,0L168.2,400.3z"/>
		<path d="M88.7,256.6l1.6,2.8l1.6-2.8l-1.5-2.7L88.7,256.6z"/>
		<path d="M87.8,263.8l1.6-2.9l-1.6-2.9l-1.9,2.9L87.8,263.8z"/>
		<path d="M92.9,263.4l1.3-2.5l-1.3-2.6l-1.5,2.6L92.9,263.4z"/>
		<path d="M92,265.2l-1.6-2.6l-1.6,2.8l1.7,2.7L92,265.2z"/>
		<path d="M79.9,260.9l2.1,2.8l1.9-2.8L82,258L79.9,260.9z"/>
		<path d="M84.9,262.4l-1.7,2.8l2.2,2.9l1.5-2.7L84.9,262.4z"/>
		<path d="M80.3,270.2l2.3,2.7l1.7-2.9l-2-2.7L80.3,270.2z"/>
		<path d="M85.4,271.5l-1.6,2.8l2.3,2.8l1.4-2.7L85.4,271.5z"/>
		<path d="M93.2,266.9l-1.3,2.7l1.7,2.4l1.1-2.6L93.2,266.9z"/>
		<path d="M89.8,269.7l-1.8-2.8l-1.7,3l2.1,2.8L89.8,269.7z"/>
		<path d="M92.6,273.9l-1.7-2.5l-1.5,2.9l1.9,2.6L92.6,273.9z"/>
		<path d="M93.8,275.5l-1.2,2.8l1.8,2.4l1-2.7L93.8,275.5z"/>
		<path d="M90.6,278.4l-2-2.7l-1.6,3.1l2.2,2.7L90.6,278.4z"/>
		<path d="M93.7,282.5l-1.9-2.4l-1.3,3l2,2.5L93.7,282.5z"/>
		<path d="M83.6,282l1.6-3l-2.1-2.6l-1.9,3.1L83.6,282z"/>
		<path d="M80.9,287.4l1.8-3.5l-2.5-2.7l-2,3.4L80.9,287.4z"/>
		<path d="M85.1,291.1l1.4-3.1l-2.3-2.5l-1.7,3.2L85.1,291.1z"/>
		<path d="M89.8,284.5l-1.4,3.2l2.3,2.6l1.2-3.1L89.8,284.5z"/>
		<path d="M90.1,292l-2.4-2.7l-1.3,3l2.6,2.5L90.1,292z"/>
		<path d="M93.2,288.6l-1.2,3.1l2.1,2.4l1-3.1L93.2,288.6z"/>
		<path d="M86.3,280.5l-1.5,2.9l2.5,2.7l1.2-2.8L86.3,280.5z"/>
		<path d="M95.8,289l0.8-2.7L95,284l-1.1,2.8L95.8,289z"/>
		<path d="M96.5,292.4l-0.9,2.9l2.1,2.1l0.7-2.7L96.5,292.4z"/>
		<path d="M97.2,299.4l-2.1-2.3l-1,3.1l2.3,2.3L97.2,299.4z"/>
		<path d="M100,305.8l0.5-2.8l-1.9-2.2l-0.8,2.9L100,305.8z"/>
		<path d="M99.6,307.7l-2.3-2.1l-0.8,3.2l2.4,2.1L99.6,307.7z"/>
		<path d="M95,307.5l0.8-3.2l-2.4-2.4l-1.1,3.3L95,307.5z"/>
		<path d="M93.7,295.7l-2.2-2.5l-1.2,3.2l2.4,2.5L93.7,295.7z"/>
		<path d="M89.6,298.2l-1.2,3.1l2.7,2.4l0.9-2.9L89.6,298.2z"/>
		<path d="M87,300l1.2-3.2l-2.4-2.4l-1.5,3.2L87,300z"/>
		<path d="M82.6,296.5l1.6-3.6l-2.7-2.6l-1.9,3.5L82.6,296.5z"/>
		<path d="M84.9,305.6l1.4-3.6l-2.8-2.4l-1.7,3.6L84.9,305.6z"/>
		<path d="M84.4,307.3l-3.9-3.1c0.3,1,0.5,2.1,0.8,3.1s0.6,2.1,0.9,3.2c0.1,0.4,0.3,0.9,0.4,1.3L84.4,307.3z"/>
		<path d="M91.9,306.9L91,310l2.8,2.2l0.8-3L91.9,306.9z"/>
		<path d="M89.5,308.9l1.1-3.2l-2.5-2.3l-1.3,3.3L89.5,308.9z"/>
		<path d="M79.7,301.3c0.1,0.5,0.2,0.9,0.3,1.4l2-4.5l-3.7-3.3c0.2,1.1,0.4,2.1,0.7,3.2
			C79.2,299.1,79.4,300.2,79.7,301.3z"/>
		<path d="M87.6,314.6l1.2-3.7l-2.9-2.3l-1.5,3.7L87.6,314.6z"/>
		<path d="M92.4,317.6l0.9-3.3l-2.6-2.1l-1.2,3.4L92.4,317.6z"/>
		<path d="M83.1,313.4c0.3,1,0.6,2,1,3.1c0.3,1.1,0.7,2.1,1.1,3.2c0.1,0.5,0.3,0.9,0.4,1.3l1.6-4.7L83.1,313.4z"/>
		<path d="M93.7,320.9l-1,3.5l3,1.9l0.7-3.3L93.7,320.9z"/>
		<path d="M87.5,321.2l3.3,2.2l1-3.8l-3-2.1L87.5,321.2z"/>
		<path d="M86.3,322.5c0.4,1,0.7,2,1.1,3c0.4,1.1,0.8,2.1,1.2,3.1c0.1,0.4,0.3,0.8,0.5,1.3l1.3-4.7L86.3,322.5z"/>
		<path d="M102.6,313.9l0.4-2.8l-2-2.1l-0.6,2.9L102.6,313.9z"/>
		<path d="M101.8,319.1l0.5-3.2l-2.3-2l-0.7,3.2L101.8,319.1z"/>
		<path d="M106.1,319.1l-2.1-1.9l-0.5,2.9l2.3,1.8L106.1,319.1z"/>
		<path d="M96,310.3l-0.9,3.4l2.7,2.2l0.7-3.3L96,310.3z"/>
		<path d="M97.4,317.7l-2.8-2.3l-0.8,3.2l2.9,2.1L97.4,317.7z"/>
		<path d="M98,323.9l-0.6,3.2l3.1,1.9l0.4-3.1L98,323.9z"/>
		<path d="M101.1,324.2l0.5-3.3l-2.5-2.1l-0.7,3.4L101.1,324.2z"/>
		<path d="M102.7,325.3l2.6,1.9l0.3-3.3l-2.4-1.9L102.7,325.3z"/>
		<path d="M107.2,325.1l-0.3,3l2.5,1.7l0.1-2.8L107.2,325.1z"/>
		<path d="M95.3,328.2l-3.1-2l-1.1,3.8l3.4,2L95.3,328.2z"/>
		<path d="M74.5,256.9c0,1.1,0,2.1,0,3.2c0,1.1,0,2.2,0,3.3c0,0.5,0,0.9,0,1.4l2.9-4L74.5,256.9z"/>
		<path d="M76.3,265.7l2.5,3.1l2.1-3.3l-2.2-3L76.3,265.7z"/>
		<path d="M74.8,266.5c0,1.1,0.1,2.1,0.1,3.2c0.1,1.1,0.1,2.2,0.2,3.3c0,0.4,0,0.9,0.1,1.4l2.7-4.1L74.8,266.5z"/>
		<path d="M77,275.1l2.6,2.9l2-3.4l-2.4-2.9L77,275.1z"/>
		<path d="M75.7,279.2c0.1,1.1,0.3,2.2,0.4,3.3c0,0.5,0.1,0.9,0.1,1.4l2.5-4.3l-3.3-3.7
			C75.5,277.1,75.6,278.1,75.7,279.2z"/>
		<path d="M76.6,285.5c0.1,1.1,0.3,2.1,0.5,3.2c0.2,1.1,0.4,2.2,0.5,3.3c0.1,0.4,0.1,0.9,0.3,1.3l2.3-4.4L76.6,285.5
			z"/>
		<path d="M110.9,332.9l-0.1,3l2.5,1.6v-2.8L110.9,332.9z"/>
		<path d="M110.7,337.8l-0.1,3.2l2.8,1.6l0-3.2L110.7,337.8z"/>
		<path d="M110.4,342.7l-0.2,3.5l3.1,1.6v-3.3L110.4,342.7z"/>
		<path d="M115,340.5v3l2.6,1.5l-0.2-2.8L115,340.5z"/>
		<path d="M117.9,350.1l-0.2-3.2l-2.7-1.5v3.3L117.9,350.1z"/>
		<path d="M119.5,347.7l0.2,3l2.7,1.3l-0.3-2.8L119.5,347.7z"/>
		<path d="M118.2,355.1l-0.2-3.3l-3-1.5v3.5L118.2,355.1z"/>
		<path d="M122.6,354l-2.8-1.3l0.2,3.3l2.9,1.3L122.6,354z"/>
		<path d="M110,351.3l3.3,1.4v-3.1l-3.2-1.6L110,351.3z"/>
		<path d="M113.4,354.8l-3.1-1.4L110,357l3.3,1.2V354.8z"/>
		<path d="M115.1,355.6l0,3.3l3.4,1.2l-0.2-3.1L115.1,355.6z"/>
		<path d="M113.4,364.2v-3.9l-3.5-1.3l-0.3,4L113.4,364.2z"/>
		<path d="M123.7,364.2l-3.3-1.3l0.2,3.3l3.5,1.1L123.7,364.2z"/>
		<path d="M120.2,361.1l3.3,1.2l-0.4-3.3l-3.1-1.4L120.2,361.1z"/>
		<path d="M118.6,362.2l-3.2-1.2l0,3.5l3.4,1.1L118.6,362.2z"/>
		<path d="M127.4,359l-0.4-2.8l-2.6-1.3l0.3,3L127.4,359z"/>
		<path d="M128.3,364.1l-0.5-3.2l-2.8-1.2l0.4,3.2L128.3,364.1z"/>
		<path d="M132.3,362.8l-2.7-1.2l0.5,3l2.8,1L132.3,362.8z"/>
		<path d="M104.8,332.2l0.3-3.3l-2.7-2l-0.5,3.5L104.8,332.2z"/>
		<path d="M104.3,337.1l0.3-3.1l-3-1.9l-0.5,3.2L104.3,337.1z"/>
		<path d="M109,336.8l-2.8-1.9l-0.4,3.5l3,1.7L109,336.8z"/>
		<path d="M106.4,333.3l2.7,1.7l0.2-3.2l-2.5-1.7L106.4,333.3z"/>
		<path d="M97.2,329.3l-0.8,3.5l3.1,1.7l0.5-3.3L97.2,329.3z"/>
		<path d="M99.2,336.6l-3.2-1.9l-0.9,3.9l3.5,1.8L99.2,336.6z"/>
		<path d="M101.2,337.6l-0.7,3.5l3.2,1.6l0.4-3.4L101.2,337.6z"/>
		<path d="M95.4,342.8c0.5,1,1.1,2,1.6,3c0.2,0.4,0.4,0.8,0.7,1.2l0.8-4.9l-4.4-2.2
			C94.4,340.9,94.9,341.9,95.4,342.8z"/>
		<path d="M108.6,345l0.1-3.1l-3.1-1.8l-0.3,3.3L108.6,345z"/>
		<path d="M103.5,344.7l-3.3-1.7l-0.7,3.9l3.6,1.6L103.5,344.7z"/>
		<path d="M94.2,333.7l-4.3-2.5c0.4,1,0.8,2,1.3,3c0.5,1,0.9,2,1.4,3.1c0.2,0.4,0.4,0.8,0.6,1.2L94.2,333.7z"/>
		<path d="M108.3,350.6l0.2-3.4l-3-1.5l-0.4,3.5L108.3,350.6z"/>
		<path d="M104.8,351.2l-0.5,4l3.6,1.5l0.3-3.9L104.8,351.2z"/>
		<path d="M102.4,355.3l0.5-4.9l-4.5-2c0.5,0.9,1.1,1.9,1.6,2.8c0.6,0.9,1.2,1.9,1.7,2.9
			C102,354.5,102.2,354.9,102.4,355.3z"/>
		<path d="M103.4,356.5c0.5,0.9,1.1,1.8,1.7,2.7c0.6,0.9,1.2,1.9,1.9,2.8c0.3,0.4,0.5,0.8,0.8,1.2l0.3-4.9
			L103.4,356.5z"/>
		<path d="M134.4,372.5l-3.2-1.1l0.5,3.5l3.3,0.9L134.4,372.5z"/>
		<path d="M134,370.7l-0.7-3.2l-2.9-1l0.5,3.2L134,370.7z"/>
		<path d="M138,369.2l-2.7-1.1l0.6,2.9l2.8,0.8L138,369.2z"/>
		<path d="M125.4,364.7l0.4,3.5l3.3,1.1l-0.5-3.3L125.4,364.7z"/>
		<path d="M126.1,369.9l0.4,3.3l3.5,0.9l-0.5-3L126.1,369.9z"/>
		<path d="M124.6,372.7l-0.4-3.4l-3.2-1.1l0.1,3.6L124.6,372.7z"/>
		<path d="M131.2,381.6l-3.6-0.7l0.3,3.9l3.9,0.7L131.2,381.6z"/>
		<path d="M125.2,378.7l-0.4-3.9l-3.6-0.9l0.1,4L125.2,378.7z"/>
		<path d="M127,375.3l0.3,3.6l3.5,0.7l-0.5-3.3L127,375.3z"/>
		<path d="M136.2,380.6l-0.7-3l-3.4-0.9l0.5,3.2L136.2,380.6z"/>
		<path d="M119.1,371.6l-0.2-3.9l-3.5-1.1l-0.1,4L119.1,371.6z"/>
		<path d="M113.4,370.9l0-4.9l-4.8-1.5c0.7,0.9,1.3,1.8,1.9,2.7c0.7,0.9,1.3,1.8,2,2.7
			C112.9,370.2,113.2,370.5,113.4,370.9z"/>
		<path d="M116.5,374.6c0.7,0.9,1.4,1.7,2.1,2.6c0.3,0.4,0.6,0.7,0.9,1.1l-0.2-4.9l-4.8-1.2
			C115.2,373,115.8,373.8,116.5,374.6z"/>
		<path d="M120.7,379.4c0.7,0.8,1.4,1.6,2.1,2.4c0.7,0.8,1.5,1.7,2.3,2.5c0.3,0.3,0.7,0.7,0.9,1l-0.5-4.9
			L120.7,379.4z"/>
		<path d="M137.4,385.9l-0.7-3.3l-3.3-0.7l0.5,3.5L137.4,385.9z"/>
		<path d="M137.8,388l-3.7-0.5l0.5,3.9l3.9,0.5L137.8,388z"/>
		<path d="M127.2,386.4c0.8,0.8,1.5,1.6,2.3,2.3c0.8,0.8,1.6,1.6,2.4,2.4c0.3,0.3,0.7,0.6,1,0.9l-0.7-4.9
			L127.2,386.4z"/>
		<path d="M236.8,421.2l-2.3-1.6l-2.8,0.9l2.3,1.9L236.8,421.2z"/>
		<path d="M238.1,425.6l2.9-1.3l-2.7-1.9l-2.8,1.2L238.1,425.6z"/>
		<path d="M229.9,421.2l-2.9,1l2.4,2.1l3-1.2L229.9,421.2z"/>
		<path d="M233.8,424.3l-3.2,1.2l2.6,2.3l3.2-1.4L233.8,424.3z"/>
		<path d="M228,429.9l3.3-1.5l-2.3-2l-3.3,1.3L228,429.9z"/>
		<path d="M230.6,434.9l-2.8-2.8l-3.4,1.5l2.6,3L230.6,434.9z"/>
		<path d="M229.8,431.1l2.5,2.5l3.1-1.7l-2.5-2.3L229.8,431.1z"/>
		<path d="M237.8,427.5l-3.3,1.5l2.5,2.1l3.2-1.7L237.8,427.5z"/>
		<path d="M238.9,432.3l2.6,2.4l3.1-1.8l-2.7-2.1L238.9,432.3z"/>
		<path d="M239.8,436l-2.9-2.6l-3.3,1.7l2.8,2.8L239.8,436z"/>
		<path d="M253,424.9l2.8,1.8l2.8-1.6l-2.8-1.6L253,424.9z"/>
		<path d="M254,422.4l-2.5-1.4l-2.7,1.2l2.5,1.6L254,422.4z"/>
		<path d="M245.2,427.2l-2.7-1.9l-3.1,1.3l2.7,2.2L245.2,427.2z"/>
		<path d="M247,423.1l-2.8,1.3l2.7,1.9l2.8-1.5L247,423.1z"/>
		<path d="M245.4,422l-2.4-1.6l-2.7,1.1l2.4,1.7L245.4,422z"/>
		<path d="M246.1,434.2l-3.2,1.9l2.9,2.7l3.3-2.1L246.1,434.2z"/>
		<path d="M243.5,429.9l2.6,2l3.1-1.9l-2.5-1.8L243.5,429.9z"/>
		<path d="M250.7,435.4l2.9-2l-2.7-2l-2.9,1.7L250.7,435.4z"/>
		<path d="M255.6,428.6l-3.1,1.8l2.7,1.9l3-2L255.6,428.6z"/>
		<path d="M251.1,429.4l3-1.7l-2.8-1.8l-3,1.5L251.1,429.4z"/>
		<path d="M217.8,416.2l-2.8,0.6l2.1,2.1l2.9-0.8L217.8,416.2z"/>
		<path d="M203.4,413.4l-1.9-2.1l-2.9,0.3l1.9,2.3L203.4,413.4z"/>
		<path d="M204.7,414.8l-3,0.5l2.1,2.5l3.2-0.7L204.7,414.8z"/>
		<path d="M208.6,416.7l2.9-0.7l-2-2l-2.9,0.4L208.6,416.7z"/>
		<path d="M208.5,426.4l-2.1-2.7l-3.3,0.9l2,2.9L208.5,426.4z"/>
		<path d="M210.3,421l-2.3-2.5l-3.3,0.7l2.2,2.7L210.3,421z"/>
		<path d="M208.1,423.3l2.1,2.5l3.4-1.2l-2.1-2.3L208.1,423.3z"/>
		<path d="M199.6,420.6l2,2.6l3.5-1l-1.9-2.4L199.6,420.6z"/>
		<path d="M198.5,419.1l3.4-0.7l-2.1-2.6l-3.3,0.5L198.5,419.1z"/>
		<path d="M199.8,423.6l-2-2.7l-3.3,0.7l1.9,3L199.8,423.6z"/>
		<path d="M199.6,431.4c1,0.4,2,0.7,3.1,1.1c1.1,0.3,2.1,0.7,3.2,1c0.4,0.1,0.9,0.3,1.3,0.4l-2.9-4L199.6,431.4z"/>
		<path d="M199.5,429.7l3.8-1.2l-2.3-3.2l-3.6,1L199.5,429.7z"/>
		<path d="M208.8,434.2c1,0.3,2.1,0.6,3.1,0.9c1.1,0.3,2.2,0.6,3.3,0.8c0.4,0.1,0.9,0.2,1.3,0.3l-3.1-3.9
			L208.8,434.2z"/>
		<path d="M206.2,429.2l2.3,3.2l3.7-1.4l-2.4-3L206.2,429.2z"/>
		<path d="M223.3,418.9l2.3,2l2.8-1l-2.2-1.7L223.3,418.9z"/>
		<path d="M222.4,426.7l-2.2-2.1l-3.4,1.1l2.2,2.4L222.4,426.7z"/>
		<path d="M223.8,421.6l-2.4-2.2l-3,0.9l2.3,2.3L223.8,421.6z"/>
		<path d="M221.9,423.9l2.5,2.5l3.2-1.2l-2.5-2.2L221.9,423.9z"/>
		<path d="M215.6,424.3l3.3-1.1l-2.4-2.3l-3.2,0.8L215.6,424.3z"/>
		<path d="M214.1,430.1l3.3-1.3l-2.3-2.5l-3.2,1.1L214.1,430.1z"/>
		<path d="M218.7,430.3l-3.5,1.3l2.5,3.2l3.6-1.6L218.7,430.3z"/>
		<path d="M226.3,430.7l-2.4-2.4l-3.2,1.2l2.4,2.7L226.3,430.7z"/>
		<path d="M212.9,417.4l-3,0.7l2.2,2.4l3.1-0.8L212.9,417.4z"/>
		<path d="M218.1,436.6c1.1,0.3,2.1,0.5,3.2,0.7c1.1,0.2,2.2,0.4,3.3,0.7c0.4,0.1,0.9,0.2,1.3,0.3l-3.3-3.7
			L218.1,436.6z"/>
		<path d="M252.3,436.6l3.1,2.5l3.2-2.3l-3.2-2.3L252.3,436.6z"/>
		<path d="M254.4,440.8l-3.8-3.1l-4.1,2.8c1.1,0.1,2.1,0.1,3.2,0.2c1.1,0.1,2.2,0.1,3.3,0.1
			C253.5,440.8,254,440.8,254.4,440.8z"/>
		<path d="M243.5,440.3c0.4,0,0.9,0.1,1.4,0.1l-3.6-3.3l-4.3,2.5c1.1,0.1,2.1,0.3,3.2,0.4
			C241.2,440.1,242.3,440.2,243.5,440.3z"/>
		<path d="M227.5,438.3c1.1,0.2,2.1,0.4,3.2,0.5c1.1,0.2,2.2,0.4,3.3,0.5c0.4,0.1,0.9,0.1,1.3,0.2l-3.5-3.5
			L227.5,438.3z"/>
		<path d="M193.5,408.2l-2.9,0.1l1.8,2.4l2.9-0.4L193.5,408.2z"/>
		<path d="M185.7,404.6h-2.9l1.6,2.5l3-0.3L185.7,404.6z"/>
		<path d="M188.6,408.5l-3.1,0.3l1.8,2.7l3.2-0.4L188.6,408.5z"/>
		<path d="M189.3,417.6l-3.3,0.5l1.7,3.1l3.5-0.8L189.3,417.6z"/>
		<path d="M182.9,413.6l1.7,2.8l3.6-0.7l-1.7-2.5L182.9,413.6z"/>
		<path d="M190.1,415.8l3.5-0.6l-2-2.7l-3.3,0.3L190.1,415.8z"/>
		<path d="M194.6,416.7l-3.5,0.6l1.8,2.7l3.5-0.8L194.6,416.7z"/>
		<path d="M196.6,411.9l-3.1,0.4l2,2.6l3.2-0.5L196.6,411.9z"/>
		<path d="M185.4,411.6l-1.9-2.8l-3.3,0.1l1.7,3L185.4,411.6z"/>
		<path d="M179.4,407.6l3.2-0.2l-1.8-2.7l-3.1,0.1L179.4,407.6z"/>
		<path d="M179.7,403l-1.6-2.4l-2.9-0.1l1.5,2.6L179.7,403z"/>
		<path d="M177.4,407.7l-1.7-2.9l-3.3,0l1.6,3.1L177.4,407.7z"/>
		<path d="M174.9,403.3l-1.6-2.8l-3.1-0.1l1.5,2.9H174.9z"/>
		<path d="M172,407.7l-1.4-2.7H167l1.3,3L172,407.7z"/>
		<path d="M173,409.6l-3.4,0.2l1.4,3.3l3.5-0.4L173,409.6z"/>
		<path d="M176.4,412.4l3.6-0.4l-1.5-2.7l-3.6,0.2L176.4,412.4z"/>
		<path d="M177.7,414.2l1.6,3.2l3.5-0.6l-1.7-2.9L177.7,414.2z"/>
		<path d="M177.2,417.9l-1.8-3.5l-3.7,0.4l1.5,3.7L177.2,417.9z"/>
		<path d="M176.1,421.8c1,0.5,2,1,3,1.5c0.4,0.2,0.8,0.4,1.2,0.6l-2.2-4.4l-4.9,0.8
			C174.2,420.8,175.2,421.3,176.1,421.8z"/>
		<path d="M180.1,419.1l1.7,3.6l3.9-0.8l-2-3.3L180.1,419.1z"/>
		<path d="M170.5,419c0.4,0.2,0.8,0.4,1.2,0.7l-2-4.5l-4.9,0.5c0.9,0.6,1.9,1.1,2.8,1.6
			C168.6,417.9,169.6,418.4,170.5,419z"/>
		<path d="M190.6,426.5l3.8-1l-2.1-3.3l-3.6,0.8L190.6,426.5z"/>
		<path d="M184.8,425.8c1,0.5,2,0.9,3.1,1.3c0.4,0.2,0.9,0.4,1.3,0.5l-2.4-4.3l-4.9,1.1
			C182.8,425,183.8,425.4,184.8,425.8z"/>
		<path d="M190.7,428.2c1,0.4,2,0.8,3,1.2c1.1,0.4,2.1,0.8,3.2,1.2c0.4,0.1,0.9,0.3,1.3,0.5l-2.7-4.1L190.7,428.2z"
		/>
		<path d="M161.8,405l1.2,3.3l3.5-0.3l-1.3-3.1H161.8z"/>
		<path d="M155.8,405.1l1.2,3.8l4-0.2l-1.4-3.6L155.8,405.1z"/>
		<path d="M156.7,410.6c0.9,0.6,1.8,1.2,2.7,1.8c0.9,0.6,1.9,1.2,2.8,1.8c0.4,0.2,0.8,0.5,1.2,0.7l-1.7-4.6
			L156.7,410.6z"/>
		<path d="M163.7,410.2l1.3,3.7l3.9-0.4l-1.6-3.6L163.7,410.2z"/>
		<path d="M154.2,409c0.4,0.3,0.8,0.5,1.1,0.8l-1.5-4.7l-4.9,0c0.8,0.7,1.7,1.3,2.6,1.9
			C152.4,407.8,153.3,408.4,154.2,409z"/>
		<path d="M262.8,97.1l-4.1-2.4l-4.3,2.3l-4.2-2.1l-4.2,2.5l-4.3-1.9l-4,2.8l-4.4-1.7l-3.9,3l-4.5-1.5l-3.7,3.1
			l-4.7-1.2l-3.6,3.4l-4.6-1l-3.3,3.5l-4.7-0.8l-3.2,3.7l-4.7-0.5l-3,3.9l-4.7-0.3l-2.8,4l-4.8,0l-2.5,4.1l-4.8,0.3l-2.4,4.3
			l-4.7,0.5l-2.1,4.4l-4.7,0.7l-1.9,4.6l-4.6,0.9l-1.7,4.5l-4.6,1.2l-1.4,4.7l-4.5,1.5l-1.2,4.7l-4.5,1.7l-0.9,4.8l-4.3,1.9
			l-0.7,4.8l-4.2,2.2l-0.4,4.9l-4.1,2.4l-0.2,4.9l-4,2.6l0.1,4.9l-3.8,2.8l0.3,4.8l-3.7,3l0.6,4.9l-3.5,3.2l0.8,4.7l-3.4,3.4
			l1.1,4.8l-3.1,3.5l1.3,4.6l-3.1,3.7l1.6,4.7l-2.8,3.8l1.9,4.5l-2.6,4l2.1,4.5l-2.4,4.1l2.3,4.3l-2.1,4.2l2.5,4.3l-1.9,4.3l2.8,4
			l-1.7,4.5l3,3.9l-1.5,4.5l3.1,3.7l-1.2,4.6l3.4,3.6l-1,4.7l3.5,3.4l-0.8,4.7l3.7,3.2l-0.5,4.7l3.9,3L111,331l4,2.8v4.8l4.1,2.5
			l0.3,4.8l4.3,2.4l0.5,4.7l4.4,2.1l0.8,4.7l4.5,1.9l1,4.7l4.6,1.7l1.2,4.6l4.7,1.4l1.5,4.5l4.7,1.2l1.7,4.5l4.9,0.9l1.9,4.3
			l4.8,0.7l2.2,4.3l4.9,0.4l2.4,4.1l4.9,0.2l2.6,4l4.9-0.1l2.8,3.9l4.8-0.4l3,3.7l4.9-0.6l3.2,3.5l4.8-0.8l3.3,3.3l4.8-1.1l3.5,3.2
			l4.7-1.3l3.7,3.1l4.7-1.6l3.8,2.8l4.5-1.8l4,2.6l4.4-2.1l4.1,2.4l4.3-2.3l4.2,2.1l4.2-2.5l4.4,1.9l4-2.7l4.4,1.7l3.9-2.9l4.5,1.5
			l3.7-3.2l4.6,1.2l3.5-3.3l4.7,1l3.5-3.6l4.7,0.8l3.2-3.7l4.7,0.5l3.1-3.9l4.7,0.3l2.8-4h4.8l2.6-4.2l4.8-0.3l2.4-4.3l4.7-0.5
			l2.1-4.4l4.7-0.7l1.9-4.5l4.7-1l1.7-4.7l4.6-1.2l1.4-4.7l4.5-1.5l1.2-4.8l4.4-1.7l0.9-4.8l4.3-1.9l0,0l-7.8-5.7
			c-4.5,5.9-9.5,11.6-14.9,17.1c-27.4,27.4-60.1,42.1-98.1,44l-7.2,0.2c-0.1,0-0.3,0-0.5,0c-0.3,0-0.5,0-0.8,0
			c-41.6,0-77.2-14.7-106.6-44.1c-29.5-29.4-44.1-64.9-44.1-106.6s14.7-77.2,44.1-106.6c29.4-29.5,64.9-44.1,106.6-44.1
			c41.6,0,77.2,14.7,106.6,44.1c5.4,5.4,10.3,11,14.7,16.8l9.8-6.9l0-0.1l-4.4-2.1l-0.8-4.7l-4.5-1.9l-1-4.7l-4.6-1.7l-1.2-4.5
			l-4.6-1.4l-1.5-4.6l-4.8-1.2l-1.7-4.4l-4.8-0.9l-1.9-4.3l-4.8-0.7l-2.1-4.2l-4.8-0.4l-2.4-4.1l-4.9-0.2l-2.6-4l-4.9,0.1l-2.8-3.8
			l-4.9,0.3l-3-3.7l-4.8,0.6l-3.2-3.6l-4.9,0.9l-3.3-3.4l-4.7,1.1l-3.5-3.2l-4.8,1.4l-3.6-2.9l-4.6,1.6v0l-3.9-2.8l-4.5,1.9l-4-2.6
			L262.8,97.1z M215,111.3l-0.1-0.1h0L215,111.3z M230.6,107.6l0,0.2L230.6,107.6z M246.5,105.6v0.1V105.6L246.5,105.6z
			 M119.8,191.2L119.8,191.2l0.1,0.1L119.8,191.2z M108.8,221.2l0.2,0L108.8,221.2L108.8,221.2z M192.5,119.6L192.5,119.6
			L192.5,119.6z M158.9,141.1L158.9,141.1l0.1,0.1L158.9,141.1z M104.7,268.9h0.1H104.7z"/>
	</g>
</g>
</svg>
